<svg width="484" height="181" viewBox="0 0 484 181" fill="none" xmlns="http://www.w3.org/2000/svg">
<g clip-path="url(#clip0_6_6531)" filter="url(#filter0_d_6_6531)">
<path d="M128.378 164.051C123.499 164.051 119.759 161.483 119.688 157.062H124.71C124.852 158.952 126.099 160.2 128.271 160.2C130.444 160.2 131.798 159.023 131.798 157.347C131.798 152.284 119.723 155.315 119.723 146.829C119.723 142.586 123.142 140.054 127.987 140.054C132.831 140.054 136.072 142.515 136.392 146.758H131.228C131.121 145.224 129.874 144.012 127.88 143.977C126.028 143.905 124.638 144.832 124.638 146.722C124.638 151.429 136.677 148.79 136.677 157.062C136.677 160.77 133.721 164.086 128.378 164.086V164.051Z" fill="white"/>
<path d="M149.037 164.122C143.623 164.122 139.705 160.342 139.705 154.495C139.705 148.647 143.516 144.868 149.037 144.868C154.558 144.868 158.191 148.54 158.191 154.067C158.191 154.673 158.191 155.279 158.048 155.885H144.442C144.691 158.631 146.544 160.2 148.894 160.2C150.925 160.2 152.029 159.201 152.634 157.953H157.692C156.695 161.376 153.596 164.122 149.001 164.122H149.037ZM144.478 152.783H153.311C153.24 150.323 151.281 148.79 148.894 148.79C146.65 148.79 144.869 150.252 144.478 152.783Z" fill="white"/>
<path d="M187.825 153.532C187.825 150.573 186.186 149.04 183.693 149.04C181.2 149.04 179.526 150.573 179.526 153.532V163.837H174.824V153.532C174.824 150.573 173.186 149.04 170.693 149.04C168.199 149.04 166.49 150.573 166.49 153.532V163.837H161.788V145.224H166.49V147.471C167.665 145.938 169.66 144.939 171.975 144.939C174.86 144.939 177.246 146.187 178.529 148.505C179.74 146.401 182.197 144.939 184.904 144.939C189.356 144.939 192.526 147.756 192.526 152.89V163.801H187.825V153.496V153.532Z" fill="white"/>
<path d="M207.985 144.904C212.758 144.904 216.497 148.647 216.497 154.459C216.497 160.271 212.758 164.157 207.985 164.157C205.064 164.157 202.998 162.696 201.823 161.198V172.715H197.121V145.224H201.823V147.899C202.927 146.33 205.064 144.904 207.985 144.904ZM206.738 149.04C204.209 149.04 201.823 151.001 201.823 154.531C201.823 158.06 204.209 160.021 206.738 160.021C209.267 160.021 211.689 157.989 211.689 154.459C211.689 150.929 209.303 149.04 206.738 149.04Z" fill="white"/>
<path d="M224.761 163.837H220.059V145.224H224.761V148.113C225.936 146.187 227.895 144.939 230.46 144.939V149.895H229.213C226.435 149.895 224.761 150.965 224.761 154.566V163.837Z" fill="white"/>
<path d="M241.929 164.122C236.515 164.122 232.597 160.342 232.597 154.495C232.597 148.647 236.408 144.868 241.929 144.868C247.45 144.868 251.083 148.54 251.083 154.067C251.083 154.673 251.083 155.279 250.94 155.885H237.334C237.583 158.631 239.435 160.2 241.786 160.2C243.817 160.2 244.921 159.201 245.526 157.953H250.584C249.587 161.376 246.488 164.122 241.893 164.122H241.929ZM237.405 152.783H246.239C246.167 150.323 244.208 148.79 241.822 148.79C239.578 148.79 237.797 150.252 237.405 152.783Z" fill="white"/>
<path d="M262.837 138.949H267.538V163.837H262.837V138.949Z" fill="white"/>
<path d="M271.848 140.233C271.848 138.7 273.059 137.487 274.733 137.487C276.407 137.487 277.618 138.7 277.618 140.233C277.618 141.766 276.371 142.978 274.733 142.978C273.095 142.978 271.848 141.766 271.848 140.233ZM272.347 145.189H277.048V163.801H272.347V145.189Z" fill="white"/>
<path d="M289.158 144.904C292.079 144.904 294.181 146.258 295.32 147.863V145.224H300.057V163.979C300.057 169.007 296.959 173.036 290.868 173.036C285.632 173.036 281.964 170.397 281.5 166.154H286.166C286.629 167.83 288.375 168.935 290.726 168.935C293.326 168.935 295.32 167.473 295.32 163.979V161.091C294.216 162.696 292.079 164.157 289.158 164.157C284.421 164.157 280.646 160.307 280.646 154.459C280.646 148.612 284.421 144.904 289.158 144.904ZM290.369 149.04C287.84 149.04 285.454 150.929 285.454 154.459C285.454 157.989 287.84 160.021 290.369 160.021C292.898 160.021 295.32 158.06 295.32 154.531C295.32 151.001 292.969 149.04 290.369 149.04Z" fill="white"/>
<path d="M312.096 144.904C315.088 144.904 317.118 146.33 318.258 147.863V145.224H322.995V163.837H318.258V161.127C317.154 162.731 315.017 164.157 312.061 164.157C307.359 164.157 303.584 160.307 303.584 154.459C303.584 148.612 307.359 144.904 312.096 144.904ZM313.307 149.04C310.778 149.04 308.392 150.929 308.392 154.459C308.392 157.989 310.778 160.021 313.307 160.021C315.836 160.021 318.258 158.06 318.258 154.531C318.258 151.001 315.907 149.04 313.307 149.04Z" fill="white"/>
<path d="M335.034 144.904C337.492 144.904 339.843 146.045 341.125 147.792V138.949H345.898V163.837H341.125V161.091C340.021 162.803 337.919 164.157 334.999 164.157C330.262 164.157 326.486 160.307 326.486 154.459C326.486 148.612 330.262 144.904 335.034 144.904ZM336.21 149.04C333.681 149.04 331.295 150.929 331.295 154.459C331.295 157.989 333.681 160.021 336.21 160.021C338.739 160.021 341.161 158.06 341.161 154.531C341.161 151.001 338.81 149.04 336.21 149.04Z" fill="white"/>
<path d="M358.934 164.122C353.556 164.122 349.495 160.342 349.495 154.495C349.495 148.647 353.698 144.868 359.077 144.868C364.455 144.868 368.658 148.612 368.658 154.495C368.658 160.378 364.348 164.122 358.934 164.122ZM358.934 160.021C361.427 160.021 363.814 158.203 363.814 154.495C363.814 150.787 361.499 148.968 359.005 148.968C356.512 148.968 354.268 150.751 354.268 154.495C354.268 158.239 356.405 160.021 358.934 160.021Z" fill="white"/>
<path d="M379.379 164.122C374.713 164.122 371.436 161.412 371.258 157.918H375.995C376.173 159.344 377.456 160.414 379.343 160.414C381.231 160.414 382.193 159.558 382.193 158.488C382.193 155.172 371.685 157.276 371.685 150.466C371.685 147.364 374.428 144.868 379.058 144.868C383.689 144.868 386.289 147.328 386.538 151.036H382.05C381.908 149.574 380.768 148.612 378.916 148.612C377.171 148.612 376.28 149.325 376.28 150.395C376.28 153.782 386.574 151.678 386.716 158.488C386.716 161.697 383.938 164.086 379.379 164.086V164.122Z" fill="white"/>
<path d="M392.807 164.05C391.097 164.05 389.886 162.838 389.886 161.305C389.886 159.772 391.097 158.56 392.807 158.56C394.517 158.56 395.656 159.772 395.656 161.305C395.656 162.838 394.445 164.05 392.807 164.05Z" fill="white"/>
<path fill-rule="evenodd" clip-rule="evenodd" d="M141.521 15.6171H124.14V31.9829H117.23V46.352H124.14V83.291C124.14 88.8533 125.992 93.9163 129.732 96.9827C134.79 101.368 142.198 103.222 150.96 102.688H153.489V90.0655H150.96C142.839 89.5307 141.521 88.2115 141.521 83.291V46.352H153.489V31.9829H141.521V15.6171Z" fill="white"/>
<path fill-rule="evenodd" clip-rule="evenodd" d="M212.722 32.0898C212.722 32.0898 198.973 66.9965 195.839 75.1972C192.705 67.0321 177.852 32.0898 177.852 32.0898H158.476L187.113 101.404H202.108L228.287 32.0898H212.758H212.722Z" fill="white"/>
<path fill-rule="evenodd" clip-rule="evenodd" d="M274.092 83.7902C269.034 85.8582 264.653 88.4254 258.919 87.8549C250.192 87.8549 245.17 77.3722 245.17 67.1391C245.17 56.906 249.515 45.4606 257.708 44.6405C261.376 44.6405 266.434 45.8528 272.133 48.5983L274.163 49.5966L280.325 37.4381L278.936 36.6181C266.434 29.0948 251.973 28.5599 242.036 35.2632C232.632 41.6811 227.04 54.0892 227.04 67.1747C227.04 84.7529 237.655 102.367 255.784 102.901C265.045 102.901 273.059 100.513 281.394 95.3425L283.638 94.0233L277.725 82.2926L274.092 83.7902Z" fill="white"/>
<path fill-rule="evenodd" clip-rule="evenodd" d="M448.442 30.628C439.787 30.628 432.379 33.8726 426.715 39.2923C419.841 45.6389 416.208 55.5155 416.208 65.499C416.208 84.1467 426.074 102.117 447.766 102.901C456.421 102.901 463.972 99.5142 469.493 94.1302C475.69 87.2488 480 77.2653 480 65.499C480 48.7409 468.923 30.6636 448.442 30.6636V30.628ZM448.122 88.0332C435.62 87.4627 433.732 74.2702 433.696 66.8182C433.732 52.663 438.719 46.0311 448.122 45.425C460.624 45.9955 462.512 59.188 462.547 66.6399C462.512 80.7951 457.489 87.4627 448.122 88.0332Z" fill="white"/>
<path fill-rule="evenodd" clip-rule="evenodd" d="M382.335 30.6636C377.242 30.521 372.362 31.8403 367.518 33.9796V0H350.065V89.3524L350.386 89.8873C350.386 89.8873 358.756 102.188 382.193 102.973C388.782 103.222 394.73 100.798 399.468 96.2339C406.342 89.6377 410.509 78.121 410.616 65.499C410.616 48.5983 401.89 31.3054 382.335 30.6636ZM380.732 88.675C374.499 89.0315 369.548 86.8209 367.518 85.4303V48.7766C370.581 47.2077 375.318 45.1754 379.806 45.5319C388.212 46.0311 391.881 52.4134 391.881 66.1764C391.881 69.8489 391.347 88.2115 380.732 88.675Z" fill="white"/>
<path fill-rule="evenodd" clip-rule="evenodd" d="M318.472 30.521C309.104 30.521 302.836 32.3394 294.038 36.7964L292.079 38.0443L297.813 50.6307L299.63 49.9176C307.181 46.1381 310.921 44.8901 315.979 44.8901C320.324 44.8901 325.346 48.0991 325.346 52.9839V55.5155H312.239C297.849 55.5155 287.235 65.0354 287.235 78.7271C287.235 92.4188 297.849 102.616 310.992 102.616C322.853 103.329 334.18 98.8368 342.265 90.743L342.977 90.0299V52.4134C342.977 38.0087 330.404 30.4497 318.543 30.4497L318.472 30.521ZM325.311 85.0381C322.817 86.9992 319.719 88.8176 315.943 88.8176C309.104 88.2471 305.329 83.2197 305.329 78.1923C305.329 73.1649 309.104 69.3854 315.231 69.3854H325.275V85.0381H325.311Z" fill="white"/>
<path d="M20.7405 8.52164C27.4723 8.52164 32.7438 13.9056 32.7438 22.4986C32.7438 31.0915 27.4367 36.5824 20.7405 36.5824C16.7513 36.5824 13.8662 34.764 12.3346 32.3751V36.1902H4V0H12.3346V12.7646C13.8662 10.3044 16.8225 8.52164 20.7405 8.52164ZM18.2472 15.7953C15.1128 15.7953 12.299 18.1843 12.299 22.5342C12.299 26.8842 15.1485 29.2731 18.2472 29.2731C21.346 29.2731 24.2667 26.8129 24.2667 22.4629C24.2667 18.1129 21.4172 15.7597 18.2472 15.7597V15.7953Z" fill="white"/>
<path d="M56.1805 8.91388H65.2275L48.1308 49.1688H39.1551L45.4238 35.2989L34.3466 8.94953H43.6786L49.983 26.0285L56.2517 8.94953L56.1805 8.91388Z" fill="white"/>
</g>
<defs>
<filter id="filter0_d_6_6531" x="0" y="0" width="484" height="181" filterUnits="userSpaceOnUse" color-interpolation-filters="sRGB">
<feFlood flood-opacity="0" result="BackgroundImageFix"/>
<feColorMatrix in="SourceAlpha" type="matrix" values="0 0 0 0 0 0 0 0 0 0 0 0 0 0 0 0 0 0 127 0" result="hardAlpha"/>
<feOffset dy="4"/>
<feGaussianBlur stdDeviation="2"/>
<feComposite in2="hardAlpha" operator="out"/>
<feColorMatrix type="matrix" values="0 0 0 0 0 0 0 0 0 0 0 0 0 0 0 0 0 0 0.25 0"/>
<feBlend mode="normal" in2="BackgroundImageFix" result="effect1_dropShadow_6_6531"/>
<feBlend mode="normal" in="SourceGraphic" in2="effect1_dropShadow_6_6531" result="shape"/>
</filter>
<clipPath id="clip0_6_6531">
<rect width="476" height="173" fill="white" transform="translate(4)"/>
</clipPath>
</defs>
</svg>
