<svg width="244" height="244" viewBox="0 0 244 244" fill="none" xmlns="http://www.w3.org/2000/svg">
<g filter="url(#filter0_f_218_4)">
<path d="M122.055 50.7637C82.7022 50.7637 50.7637 82.7022 50.7637 122.055C50.7637 161.408 82.7022 193.346 122.055 193.346C161.408 193.346 193.346 161.408 193.346 122.055C193.346 82.7022 161.408 50.7637 122.055 50.7637ZM173.67 165.4L169.392 166.16L169.25 166.208L167.301 153.043L169.773 145.676L176.426 125.715L178.755 123.528L184.316 118.348L184.506 118.538L189.449 124.194C188.926 139.878 183.08 154.184 173.67 165.4ZM133.366 188.498L126.427 185.267L122.768 176.854L121.437 173.812L139.593 158.318L140.638 157.415L164.972 154.136L165.59 154.041L167.539 167.254L153.803 179.326L148.48 184.031C143.727 186.122 138.642 187.643 133.366 188.498ZM75.8582 171.151L82.417 174.383L83.9379 176.569L85.3637 178.613C82.0368 176.426 78.8049 173.907 75.8582 171.151ZM82.8923 172.577L71.9609 167.206C66.2101 160.837 61.6475 153.328 58.6532 145.106L59.6513 130.325L60.2216 129.754L66.1626 123.718L83.0348 139.45L83.0824 139.64L86.5994 150.571L91.2096 164.877L90.9244 165.162L82.8923 172.577ZM55.0887 129.897C54.8035 127.331 54.6134 124.717 54.6134 122.055C54.6134 106.133 60.1266 91.5423 69.3469 80.0407L69.5846 80.3258L71.3906 82.4646L73.3392 94.0138L65.4972 121.77L59.889 127.473L58.1304 129.232L57.8928 129.469L57.7502 129.612L55.0887 129.897ZM88.1678 66.5429L116.922 59.794L117.54 65.2596L118.538 74.0047L105.278 85.3638L99.1942 90.5918L75.0027 93.0632L73.1967 82.3695L88.1678 66.5429ZM122.055 54.661C127.378 54.661 132.559 55.2788 137.549 56.467L130.325 56.9423L117.397 57.7978L88.0728 64.7368L87.645 64.1665C97.6733 58.083 109.46 54.661 122.055 54.661ZM171.531 76.286C175.666 80.7536 179.183 85.744 181.987 91.1621L182.13 93.8237L183.413 114.498V114.593L183.508 116.494L175.571 123.956L156.56 108.795L150.191 85.839L149.716 84.128L154.564 80.3734L161.027 75.383L161.93 75.478L171.531 76.286ZM108.462 118.11L107.321 114.213L100.715 91.6849L119.536 75.5731L119.631 75.478L147.007 84.1756L147.862 84.4607L154.659 108.985L135.98 126.808L134.982 127.758L108.89 118.205L108.462 118.11ZM163.166 73.672L161.645 73.5294L150.666 63.9764L144.108 58.3206C153.803 61.6951 162.453 67.1607 169.582 74.2423L163.166 73.672ZM84.6508 138.262L107.274 119.631L121.294 124.764L134.079 129.422L139.212 156.227L138.262 157.035L137.264 157.891L120.677 172.006L120.249 172.387L119.964 172.624L116.684 171.626L93.0631 164.307L84.6508 138.262ZM125.619 186.978L129.992 189.021C127.378 189.306 124.716 189.497 122.055 189.497C120.011 189.497 117.968 189.401 115.924 189.211L125.619 186.978Z" fill="#60C8D8"/>
</g>
<g filter="url(#filter1_d_218_4)">
<path d="M122.055 50.7637C82.7022 50.7637 50.7637 82.7022 50.7637 122.055C50.7637 161.408 82.7022 193.346 122.055 193.346C161.408 193.346 193.346 161.408 193.346 122.055C193.346 82.7022 161.408 50.7637 122.055 50.7637ZM173.67 165.4L169.392 166.16L169.25 166.208L167.301 153.043L169.773 145.676L176.426 125.715L178.755 123.528L184.316 118.348L184.506 118.538L189.449 124.194C188.926 139.878 183.08 154.184 173.67 165.4ZM133.366 188.498L126.427 185.267L122.768 176.854L121.437 173.812L139.593 158.318L140.638 157.415L164.972 154.136L165.59 154.041L167.539 167.254L153.803 179.326L148.48 184.031C143.727 186.122 138.642 187.643 133.366 188.498ZM75.8582 171.151L82.417 174.383L83.9379 176.569L85.3637 178.613C82.0368 176.426 78.8049 173.907 75.8582 171.151ZM82.8923 172.577L71.9609 167.206C66.2101 160.837 61.6475 153.328 58.6532 145.106L59.6513 130.325L60.2216 129.754L66.1626 123.718L83.0348 139.45L83.0824 139.64L86.5994 150.571L91.2096 164.877L90.9244 165.162L82.8923 172.577ZM55.0887 129.897C54.8035 127.331 54.6134 124.717 54.6134 122.055C54.6134 106.133 60.1266 91.5423 69.3469 80.0407L69.5846 80.3258L71.3906 82.4646L73.3392 94.0138L65.4972 121.77L59.889 127.473L58.1304 129.232L57.8928 129.469L57.7502 129.612L55.0887 129.897ZM88.1678 66.5429L116.922 59.794L117.54 65.2596L118.538 74.0047L105.278 85.3638L99.1942 90.5918L75.0027 93.0632L73.1967 82.3695L88.1678 66.5429ZM122.055 54.661C127.378 54.661 132.559 55.2788 137.549 56.467L130.325 56.9423L117.397 57.7978L88.0728 64.7368L87.645 64.1665C97.6733 58.083 109.46 54.661 122.055 54.661ZM171.531 76.286C175.666 80.7536 179.183 85.744 181.987 91.1621L182.13 93.8237L183.413 114.498V114.593L183.508 116.494L175.571 123.956L156.56 108.795L150.191 85.839L149.716 84.128L154.564 80.3734L161.027 75.383L161.93 75.478L171.531 76.286ZM108.462 118.11L107.321 114.213L100.715 91.6849L119.536 75.5731L119.631 75.478L147.007 84.1756L147.862 84.4607L154.659 108.985L135.98 126.808L134.982 127.758L108.89 118.205L108.462 118.11ZM163.166 73.672L161.645 73.5294L150.666 63.9764L144.108 58.3206C153.803 61.6951 162.453 67.1607 169.582 74.2423L163.166 73.672ZM84.6508 138.262L107.274 119.631L121.294 124.764L134.079 129.422L139.212 156.227L138.262 157.035L137.264 157.891L120.677 172.006L120.249 172.387L119.964 172.624L116.684 171.626L93.0631 164.307L84.6508 138.262ZM125.619 186.978L129.992 189.021C127.378 189.306 124.716 189.497 122.055 189.497C120.011 189.497 117.968 189.401 115.924 189.211L125.619 186.978Z" fill="white"/>
</g>
<defs>
<filter id="filter0_f_218_4" x="0.763672" y="0.763733" width="242.583" height="242.583" filterUnits="userSpaceOnUse" color-interpolation-filters="sRGB">
<feFlood flood-opacity="0" result="BackgroundImageFix"/>
<feBlend mode="normal" in="SourceGraphic" in2="BackgroundImageFix" result="shape"/>
<feGaussianBlur stdDeviation="25" result="effect1_foregroundBlur_218_4"/>
</filter>
<filter id="filter1_d_218_4" x="46.7637" y="50.7637" width="150.583" height="150.583" filterUnits="userSpaceOnUse" color-interpolation-filters="sRGB">
<feFlood flood-opacity="0" result="BackgroundImageFix"/>
<feColorMatrix in="SourceAlpha" type="matrix" values="0 0 0 0 0 0 0 0 0 0 0 0 0 0 0 0 0 0 127 0" result="hardAlpha"/>
<feOffset dy="4"/>
<feGaussianBlur stdDeviation="2"/>
<feComposite in2="hardAlpha" operator="out"/>
<feColorMatrix type="matrix" values="0 0 0 0 0 0 0 0 0 0 0 0 0 0 0 0 0 0 0.25 0"/>
<feBlend mode="normal" in2="BackgroundImageFix" result="effect1_dropShadow_218_4"/>
<feBlend mode="normal" in="SourceGraphic" in2="effect1_dropShadow_218_4" result="shape"/>
</filter>
</defs>
</svg>
