<svg width="228" height="260" viewBox="0 0 228 260" fill="none" xmlns="http://www.w3.org/2000/svg">
<g filter="url(#filter0_f_218_5)">
<path d="M174.27 58.7638H151.5V54.5047C151.5 52.0208 149.48 50 146.982 50H81.0322C78.5406 50 76.5136 52.0138 76.5136 54.5047V58.7638H53.7444C51.6751 58.7638 50 60.4337 50 62.4966V81.9607C50 87.4477 50.8868 92.9347 52.6324 98.2743C54.3568 103.551 56.9258 108.687 60.262 113.55C66.0264 121.934 74.6554 127.892 84.5725 130.333L93.2579 132.466C94.5459 134.368 95.8973 136.227 97.326 138.045L104.259 146.878C106.025 149.124 106.983 151.895 106.983 154.751V168.405C106.983 172.924 103.309 176.587 98.7759 176.587H90.1047C87.8665 176.587 86.0435 178.397 86.0435 180.635V198.416H84.3262C82.088 198.416 80.265 200.226 80.265 202.464V210H147.735V202.464C147.735 200.233 145.919 198.416 143.674 198.416H141.956V180.635C141.956 178.404 140.14 176.587 137.895 176.587H129.224C124.691 176.587 121.017 172.924 121.017 168.405V154.751C121.017 151.895 121.974 149.124 123.741 146.878L130.674 138.045C132.103 136.227 133.454 134.368 134.742 132.466L143.427 130.333C153.344 127.892 161.981 121.934 167.738 113.55C171.081 108.687 173.643 103.551 175.368 98.2743C177.113 92.9347 178 87.4477 178 81.9607V62.4966C178.014 60.4337 176.339 58.7638 174.27 58.7638ZM86.3673 123.092C78.238 121.092 71.1574 116.209 66.4346 109.333C60.5787 100.807 57.4888 91.3489 57.4888 81.9607V66.2224H76.5206V77.856C76.5206 93.8328 80.448 109.473 87.8524 123.457L86.3673 123.092ZM170.525 81.9607C170.525 91.3419 167.428 100.807 161.572 109.333C156.85 116.202 149.769 121.092 141.64 123.092L140.162 123.457C147.566 109.48 151.493 93.8398 151.493 77.856V66.2224H170.525V81.9607Z" fill="#60C8D8"/>
</g>
<g filter="url(#filter1_d_218_5)">
<path d="M174.27 58.7638H151.5V54.5047C151.5 52.0208 149.48 50 146.982 50H81.0322C78.5406 50 76.5136 52.0138 76.5136 54.5047V58.7638H53.7444C51.6751 58.7638 50 60.4337 50 62.4966V81.9607C50 87.4477 50.8868 92.9347 52.6324 98.2743C54.3568 103.551 56.9258 108.687 60.262 113.55C66.0264 121.934 74.6554 127.892 84.5725 130.333L93.2579 132.466C94.5459 134.368 95.8973 136.227 97.326 138.045L104.259 146.878C106.025 149.124 106.983 151.895 106.983 154.751V168.405C106.983 172.924 103.309 176.587 98.7759 176.587H90.1047C87.8665 176.587 86.0435 178.397 86.0435 180.635V198.416H84.3262C82.088 198.416 80.265 200.226 80.265 202.464V210H147.735V202.464C147.735 200.233 145.919 198.416 143.674 198.416H141.956V180.635C141.956 178.404 140.14 176.587 137.895 176.587H129.224C124.691 176.587 121.017 172.924 121.017 168.405V154.751C121.017 151.895 121.974 149.124 123.741 146.878L130.674 138.045C132.103 136.227 133.454 134.368 134.742 132.466L143.427 130.333C153.344 127.892 161.981 121.934 167.738 113.55C171.081 108.687 173.643 103.551 175.368 98.2743C177.113 92.9347 178 87.4477 178 81.9607V62.4966C178.014 60.4337 176.339 58.7638 174.27 58.7638ZM86.3673 123.092C78.238 121.092 71.1574 116.209 66.4346 109.333C60.5787 100.807 57.4888 91.3489 57.4888 81.9607V66.2224H76.5206V77.856C76.5206 93.8328 80.448 109.473 87.8524 123.457L86.3673 123.092ZM170.525 81.9607C170.525 91.3419 167.428 100.807 161.572 109.333C156.85 116.202 149.769 121.092 141.64 123.092L140.162 123.457C147.566 109.48 151.493 93.8398 151.493 77.856V66.2224H170.525V81.9607Z" fill="#60C8D8"/>
<path d="M174.27 58.7638H151.5V54.5047C151.5 52.0208 149.48 50 146.982 50H81.0322C78.5406 50 76.5136 52.0138 76.5136 54.5047V58.7638H53.7444C51.6751 58.7638 50 60.4337 50 62.4966V81.9607C50 87.4477 50.8868 92.9347 52.6324 98.2743C54.3568 103.551 56.9258 108.687 60.262 113.55C66.0264 121.934 74.6554 127.892 84.5725 130.333L93.2579 132.466C94.5459 134.368 95.8973 136.227 97.326 138.045L104.259 146.878C106.025 149.124 106.983 151.895 106.983 154.751V168.405C106.983 172.924 103.309 176.587 98.7759 176.587H90.1047C87.8665 176.587 86.0435 178.397 86.0435 180.635V198.416H84.3262C82.088 198.416 80.265 200.226 80.265 202.464V210H147.735V202.464C147.735 200.233 145.919 198.416 143.674 198.416H141.956V180.635C141.956 178.404 140.14 176.587 137.895 176.587H129.224C124.691 176.587 121.017 172.924 121.017 168.405V154.751C121.017 151.895 121.974 149.124 123.741 146.878L130.674 138.045C132.103 136.227 133.454 134.368 134.742 132.466L143.427 130.333C153.344 127.892 161.981 121.934 167.738 113.55C171.081 108.687 173.643 103.551 175.368 98.2743C177.113 92.9347 178 87.4477 178 81.9607V62.4966C178.014 60.4337 176.339 58.7638 174.27 58.7638ZM86.3673 123.092C78.238 121.092 71.1574 116.209 66.4346 109.333C60.5787 100.807 57.4888 91.3489 57.4888 81.9607V66.2224H76.5206V77.856C76.5206 93.8328 80.448 109.473 87.8524 123.457L86.3673 123.092ZM170.525 81.9607C170.525 91.3419 167.428 100.807 161.572 109.333C156.85 116.202 149.769 121.092 141.64 123.092L140.162 123.457C147.566 109.48 151.493 93.8398 151.493 77.856V66.2224H170.525V81.9607Z" fill="white"/>
</g>
<defs>
<filter id="filter0_f_218_5" x="0" y="0" width="228" height="260" filterUnits="userSpaceOnUse" color-interpolation-filters="sRGB">
<feFlood flood-opacity="0" result="BackgroundImageFix"/>
<feBlend mode="normal" in="SourceGraphic" in2="BackgroundImageFix" result="shape"/>
<feGaussianBlur stdDeviation="25" result="effect1_foregroundBlur_218_5"/>
</filter>
<filter id="filter1_d_218_5" x="46" y="50" width="136" height="168" filterUnits="userSpaceOnUse" color-interpolation-filters="sRGB">
<feFlood flood-opacity="0" result="BackgroundImageFix"/>
<feColorMatrix in="SourceAlpha" type="matrix" values="0 0 0 0 0 0 0 0 0 0 0 0 0 0 0 0 0 0 127 0" result="hardAlpha"/>
<feOffset dy="4"/>
<feGaussianBlur stdDeviation="2"/>
<feComposite in2="hardAlpha" operator="out"/>
<feColorMatrix type="matrix" values="0 0 0 0 0 0 0 0 0 0 0 0 0 0 0 0 0 0 0.25 0"/>
<feBlend mode="normal" in2="BackgroundImageFix" result="effect1_dropShadow_218_5"/>
<feBlend mode="normal" in="SourceGraphic" in2="effect1_dropShadow_218_5" result="shape"/>
</filter>
</defs>
</svg>
