<svg width="363" height="103" viewBox="0 0 363 103" fill="none" xmlns="http://www.w3.org/2000/svg">
<path fill-rule="evenodd" clip-rule="evenodd" d="M24.5214 15.6171H7.13976V31.9829H0.229858V46.352H7.13976V83.291C7.13976 88.8533 8.9919 93.9163 12.7318 96.9827C17.7896 101.368 25.1981 103.222 33.9602 102.688H36.4891V90.0655H33.9602C25.8392 89.5307 24.5214 88.2115 24.5214 83.291V46.352H36.4891V31.9829H24.5214V15.6171Z" fill="white"/>
<path fill-rule="evenodd" clip-rule="evenodd" d="M95.7219 32.0898C95.7219 32.0898 81.9733 66.9965 78.839 75.1972C75.7046 67.0321 60.8518 32.0898 60.8518 32.0898H41.4756L70.1125 101.404H85.1077L111.287 32.0898H95.7575H95.7219Z" fill="white"/>
<path fill-rule="evenodd" clip-rule="evenodd" d="M157.092 83.7902C152.034 85.8582 147.653 88.4254 141.919 87.8549C133.192 87.8549 128.17 77.3722 128.17 67.1391C128.17 56.906 132.515 45.4606 140.708 44.6405C144.376 44.6405 149.434 45.8528 155.133 48.5983L157.163 49.5966L163.325 37.4381L161.936 36.6181C149.434 29.0948 134.973 28.5599 125.036 35.2632C115.632 41.6811 110.04 54.0892 110.04 67.1747C110.04 84.7529 120.655 102.367 138.784 102.901C148.045 102.901 156.059 100.513 164.394 95.3425L166.638 94.0233L160.725 82.2926L157.092 83.7902Z" fill="white"/>
<path fill-rule="evenodd" clip-rule="evenodd" d="M331.442 30.628C322.787 30.628 315.379 33.8726 309.715 39.2923C302.841 45.6389 299.208 55.5155 299.208 65.499C299.208 84.1467 309.074 102.117 330.766 102.901C339.421 102.901 346.972 99.5142 352.493 94.1302C358.69 87.2488 363 77.2653 363 65.499C363 48.7409 351.923 30.6636 331.442 30.6636V30.628ZM331.122 88.0332C318.62 87.4627 316.732 74.2702 316.696 66.8182C316.732 52.663 321.719 46.0311 331.122 45.425C343.624 45.9955 345.512 59.188 345.547 66.6399C345.512 80.7951 340.489 87.4627 331.122 88.0332Z" fill="white"/>
<path fill-rule="evenodd" clip-rule="evenodd" d="M265.335 30.6636C260.242 30.521 255.362 31.8403 250.518 33.9796V0H233.065V89.3524L233.386 89.8873C233.386 89.8873 241.756 102.188 265.193 102.973C271.782 103.222 277.73 100.798 282.468 96.2339C289.342 89.6377 293.509 78.121 293.616 65.499C293.616 48.5983 284.89 31.3054 265.335 30.6636ZM263.732 88.675C257.499 89.0315 252.548 86.8209 250.518 85.4303V48.7766C253.581 47.2077 258.318 45.1754 262.806 45.5319C271.212 46.0311 274.881 52.4134 274.881 66.1764C274.881 69.8489 274.347 88.2115 263.732 88.675Z" fill="white"/>
<path fill-rule="evenodd" clip-rule="evenodd" d="M201.472 30.521C192.104 30.521 185.836 32.3394 177.038 36.7964L175.079 38.0443L180.813 50.6307L182.63 49.9176C190.181 46.1381 193.921 44.8901 198.979 44.8901C203.324 44.8901 208.346 48.0991 208.346 52.9839V55.5155H195.239C180.849 55.5155 170.235 65.0354 170.235 78.7271C170.235 92.4188 180.849 102.616 193.992 102.616C205.853 103.329 217.18 98.8368 225.265 90.743L225.977 90.0299V52.4134C225.977 38.0087 213.404 30.4497 201.543 30.4497L201.472 30.521ZM208.311 85.0381C205.817 86.9992 202.719 88.8176 198.943 88.8176C192.104 88.2471 188.329 83.2197 188.329 78.1923C188.329 73.1649 192.104 69.3854 198.231 69.3854H208.275V85.0381H208.311Z" fill="white"/>
</svg>
