<svg width="291" height="229" viewBox="0 0 291 229" fill="none" xmlns="http://www.w3.org/2000/svg">
<g filter="url(#filter0_d_6_6612)">
<g filter="url(#filter1_f_6_6612)">
<path d="M87.0042 50.4157C89.9385 49.7582 102.619 50.0078 106.102 50.3C107.045 50.3792 108.238 50.4644 109.018 51.0366C110.034 51.7793 114.752 60.0342 115.331 61.5926C116.938 65.9209 116.025 69.0256 116.938 72.7512C118.186 77.8344 122.569 80.0442 127.519 80.4156C137.399 81.1583 154.22 81.1826 164.082 80.4156C169.421 79.9955 173.883 76.9578 174.675 71.3937C175.692 64.259 174.267 64.1068 178.528 57.4713C179.99 55.1945 182.808 50.6288 185.511 50.3122C189.389 49.8617 198.466 49.9409 202.435 50.3C205.741 50.6044 209.461 55.5354 211.5 58.1166C229.55 80.9391 237.075 119.072 239.626 147.611C240.076 152.633 241.337 163.585 239.845 167.877C238.713 171.146 231.462 177.02 228.199 178.128C223.938 179.571 219.213 178.938 215.889 175.858C206.49 167.164 197.644 155.105 188.5 145.772C187.185 144.427 185.962 142.753 183.947 142.57L107.885 142.351L103.995 143.477L73.5805 176.46C65.6846 181.464 58.2331 178.646 52.8941 171.742C49.8137 167.761 50.4712 163.816 50.5807 158.97C51.2382 129.403 58.3366 72.6599 82.8097 53.0638C83.6133 52.4185 86.158 50.6044 87.0042 50.4157ZM78.9196 113.198C76.9593 124.496 90.5534 132.471 98.7293 124.088C102.114 120.618 101.42 117.209 102.175 112.948C105.389 112.625 107.411 113.07 110.442 111.627C118.758 107.664 118.332 94.685 109.827 91.2455C107.033 90.1132 105.067 90.5759 102.181 90.2228C101.444 85.8336 102.084 82.321 98.5102 78.8511C90.2064 70.7971 77.0019 78.8572 78.9317 89.9671C59.5177 88.9383 59.5664 114.281 78.9317 113.204L78.9196 113.198ZM207.914 91.069C207.914 84.2021 202.332 78.6319 195.453 78.6319C188.573 78.6319 182.991 84.2021 182.991 91.069C182.991 97.9358 188.573 103.506 195.453 103.506C202.332 103.506 207.914 97.9358 207.914 91.069ZM186.424 112.077C186.424 105.204 180.842 99.6343 173.957 99.6343C167.071 99.6343 161.489 105.204 161.489 112.077C161.489 118.95 167.071 124.521 173.957 124.521C180.842 124.521 186.424 118.95 186.424 112.077ZM221.381 118.622C221.381 111.755 215.798 106.185 208.919 106.185C202.04 106.185 196.457 111.755 196.457 118.622C196.457 125.488 202.04 131.059 208.919 131.059C215.798 131.059 221.381 125.488 221.381 118.622ZM123.665 64.8982C123.769 67.2115 122.971 71.6311 125.607 72.7573L164.886 73.0008C168.544 71.8503 167.321 67.9055 167.497 64.8982H123.665ZM108.786 99.5734C106.163 95.0198 98.084 98.9464 95.6124 96.3226C92.5745 93.0961 97.1526 83.2829 90.9795 82.6741C84.3255 82.0166 86.8581 91.3733 86.2188 94.7398C85.1657 100.249 72.3325 93.8693 71.6203 101.174C70.981 107.731 80.3502 105.284 83.7046 105.923C89.2384 106.976 82.8097 119.997 90.1333 120.478C97.39 120.959 92.4345 109.454 95.8315 106.611C97.9866 104.803 105.365 107.055 108.019 104.87C109.42 103.713 109.706 101.162 108.786 99.5673V99.5734ZM173.92 106.866C171.028 106.866 168.691 109.204 168.691 112.09C168.691 114.975 171.034 117.313 173.92 117.313C176.806 117.313 179.149 114.975 179.149 112.09C179.149 109.204 176.806 106.866 173.92 106.866ZM195.428 85.8397C192.543 85.8397 190.199 88.1773 190.199 91.0568C190.199 93.9362 192.543 96.2739 195.428 96.2739C198.314 96.2739 200.658 93.9362 200.658 91.0568C200.658 88.1773 198.314 85.8397 195.428 85.8397ZM208.913 113.368C206.009 113.368 203.659 115.718 203.659 118.616C203.659 121.513 206.009 123.863 208.913 123.863C211.817 123.863 214.167 121.513 214.167 118.616C214.167 115.718 211.817 113.368 208.913 113.368Z" fill="#60C8D8"/>
</g>
<path d="M87.0042 50.4157C89.9385 49.7582 102.619 50.0078 106.102 50.3C107.045 50.3792 108.238 50.4644 109.018 51.0366C110.034 51.7793 114.752 60.0342 115.331 61.5926C116.938 65.9209 116.025 69.0256 116.938 72.7512C118.186 77.8344 122.569 80.0442 127.519 80.4156C137.399 81.1583 154.22 81.1826 164.082 80.4156C169.421 79.9955 173.883 76.9578 174.675 71.3937C175.692 64.259 174.267 64.1068 178.528 57.4713C179.99 55.1945 182.808 50.6288 185.511 50.3122C189.389 49.8617 198.466 49.9409 202.435 50.3C205.741 50.6044 209.461 55.5354 211.5 58.1166C229.55 80.9391 237.075 119.072 239.626 147.611C240.076 152.633 241.337 163.585 239.845 167.877C238.713 171.146 231.462 177.02 228.199 178.128C223.938 179.571 219.213 178.938 215.889 175.858C206.49 167.164 197.644 155.105 188.5 145.772C187.185 144.427 185.962 142.753 183.947 142.57L107.885 142.351L103.995 143.477L73.5805 176.46C65.6846 181.464 58.2331 178.646 52.8941 171.742C49.8137 167.761 50.4712 163.816 50.5807 158.97C51.2382 129.403 58.3366 72.6599 82.8097 53.0638C83.6133 52.4185 86.158 50.6044 87.0042 50.4157ZM78.9196 113.198C76.9593 124.496 90.5534 132.471 98.7293 124.088C102.114 120.618 101.42 117.209 102.175 112.948C105.389 112.625 107.411 113.07 110.442 111.627C118.758 107.664 118.332 94.685 109.827 91.2455C107.033 90.1132 105.067 90.5759 102.181 90.2228C101.444 85.8336 102.084 82.321 98.5102 78.8511C90.2064 70.7971 77.0019 78.8572 78.9317 89.9671C59.5177 88.9383 59.5664 114.281 78.9317 113.204L78.9196 113.198ZM207.914 91.069C207.914 84.2021 202.332 78.6319 195.453 78.6319C188.573 78.6319 182.991 84.2021 182.991 91.069C182.991 97.9358 188.573 103.506 195.453 103.506C202.332 103.506 207.914 97.9358 207.914 91.069ZM186.424 112.077C186.424 105.204 180.842 99.6343 173.957 99.6343C167.071 99.6343 161.489 105.204 161.489 112.077C161.489 118.95 167.071 124.521 173.957 124.521C180.842 124.521 186.424 118.95 186.424 112.077ZM221.381 118.622C221.381 111.755 215.798 106.185 208.919 106.185C202.04 106.185 196.457 111.755 196.457 118.622C196.457 125.488 202.04 131.059 208.919 131.059C215.798 131.059 221.381 125.488 221.381 118.622ZM123.665 64.8982C123.769 67.2115 122.971 71.6311 125.607 72.7573L164.886 73.0008C168.544 71.8503 167.321 67.9055 167.497 64.8982H123.665ZM108.786 99.5734C106.163 95.0198 98.084 98.9464 95.6124 96.3226C92.5745 93.0961 97.1526 83.2829 90.9795 82.6741C84.3255 82.0166 86.8581 91.3733 86.2188 94.7398C85.1657 100.249 72.3325 93.8693 71.6203 101.174C70.981 107.731 80.3502 105.284 83.7046 105.923C89.2384 106.976 82.8097 119.997 90.1333 120.478C97.39 120.959 92.4345 109.454 95.8315 106.611C97.9866 104.803 105.365 107.055 108.019 104.87C109.42 103.713 109.706 101.162 108.786 99.5673V99.5734ZM173.92 106.866C171.028 106.866 168.691 109.204 168.691 112.09C168.691 114.975 171.034 117.313 173.92 117.313C176.806 117.313 179.149 114.975 179.149 112.09C179.149 109.204 176.806 106.866 173.92 106.866ZM195.428 85.8397C192.543 85.8397 190.199 88.1773 190.199 91.0568C190.199 93.9362 192.543 96.2739 195.428 96.2739C198.314 96.2739 200.658 93.9362 200.658 91.0568C200.658 88.1773 198.314 85.8397 195.428 85.8397ZM208.913 113.368C206.009 113.368 203.659 115.718 203.659 118.616C203.659 121.513 206.009 123.863 208.913 123.863C211.817 123.863 214.167 121.513 214.167 118.616C214.167 115.718 211.817 113.368 208.913 113.368Z" fill="white"/>
</g>
<defs>
<filter id="filter0_d_6_6612" x="46.4473" y="50" width="198.105" height="137" filterUnits="userSpaceOnUse" color-interpolation-filters="sRGB">
<feFlood flood-opacity="0" result="BackgroundImageFix"/>
<feColorMatrix in="SourceAlpha" type="matrix" values="0 0 0 0 0 0 0 0 0 0 0 0 0 0 0 0 0 0 127 0" result="hardAlpha"/>
<feOffset dy="4"/>
<feGaussianBlur stdDeviation="2"/>
<feComposite in2="hardAlpha" operator="out"/>
<feColorMatrix type="matrix" values="0 0 0 0 0 0 0 0 0 0 0 0 0 0 0 0 0 0 0.25 0"/>
<feBlend mode="normal" in2="BackgroundImageFix" result="effect1_dropShadow_6_6612"/>
<feBlend mode="normal" in="SourceGraphic" in2="effect1_dropShadow_6_6612" result="shape"/>
</filter>
<filter id="filter1_f_6_6612" x="0.447266" y="0" width="290.105" height="229" filterUnits="userSpaceOnUse" color-interpolation-filters="sRGB">
<feFlood flood-opacity="0" result="BackgroundImageFix"/>
<feBlend mode="normal" in="SourceGraphic" in2="BackgroundImageFix" result="shape"/>
<feGaussianBlur stdDeviation="25" result="effect1_foregroundBlur_6_6612"/>
</filter>
</defs>
</svg>
