<svg width="200" height="199" viewBox="0 0 200 199" fill="none" xmlns="http://www.w3.org/2000/svg">
<g filter="url(#filter0_f_6_6619)">
<path fill-rule="evenodd" clip-rule="evenodd" d="M47.9592 44.8381H152.624C153.701 44.8381 154.779 45.8754 154.779 47.0029V151.997C154.779 152.538 153.701 154.162 152.624 154.162H47.9592C46.882 154.162 45.8048 152.493 45.8048 151.997V47.0029C45.8048 45.8754 46.882 44.8381 47.9592 44.8381ZM116.135 99.4549L82.294 79.8361V119.209L116.135 99.5V99.4549ZM82.294 74.8751L120.444 96.794C120.982 97.3352 121.476 97.9215 122.104 97.9215C122.643 98.4627 122.643 99.5 122.104 100.086C122.104 100.086 122.104 100.628 121.476 101.124C121.117 101.545 120.773 101.92 120.444 102.251L82.294 124.08C82.294 124.08 81.7105 124.08 81.7105 124.666H81.1719C80.6334 124.666 79.5113 124.666 79.0176 123.539C78.4341 123.539 78.4341 122.997 77.8955 122.501V76.0026C77.8955 76.0026 78.479 76.0026 78.479 75.4614C79.0625 74.83 79.5562 74.3339 80.6782 74.3339H81.7105C81.7105 74.3339 82.294 74.3339 82.294 74.8751ZM33.2827 30H167.346C168.423 30 169.5 30.6314 169.5 32.1648V166.745C169.5 167.872 168.423 169 167.346 169H33.2827C31.6221 169 30.5 167.872 30.5 166.745V32.1648C30.5 30.5863 31.6221 30 33.2827 30ZM165.102 34.465H35.437V164.58H165.102V34.465Z" fill="#60C8D8"/>
</g>
<path fill-rule="evenodd" clip-rule="evenodd" d="M47.9592 44.8381H152.624C153.701 44.8381 154.779 45.8754 154.779 47.0029V151.997C154.779 152.538 153.701 154.162 152.624 154.162H47.9592C46.882 154.162 45.8048 152.493 45.8048 151.997V47.0029C45.8048 45.8754 46.882 44.8381 47.9592 44.8381ZM116.135 99.4549L82.294 79.8361V119.209L116.135 99.5V99.4549ZM82.294 74.8751L120.444 96.794C120.982 97.3352 121.476 97.9215 122.104 97.9215C122.643 98.4627 122.643 99.5 122.104 100.086C122.104 100.086 122.104 100.628 121.476 101.124C121.117 101.545 120.773 101.92 120.444 102.251L82.294 124.08C82.294 124.08 81.7105 124.08 81.7105 124.666H81.1719C80.6334 124.666 79.5113 124.666 79.0176 123.539C78.4341 123.539 78.4341 122.997 77.8955 122.501V76.0026C77.8955 76.0026 78.479 76.0026 78.479 75.4614C79.0625 74.83 79.5562 74.3339 80.6782 74.3339H81.7105C81.7105 74.3339 82.294 74.3339 82.294 74.8751ZM33.2827 30H167.346C168.423 30 169.5 30.6314 169.5 32.1648V166.745C169.5 167.872 168.423 169 167.346 169H33.2827C31.6221 169 30.5 167.872 30.5 166.745V32.1648C30.5 30.5863 31.6221 30 33.2827 30ZM165.102 34.465H35.437V164.58H165.102V34.465Z" fill="white"/>
<defs>
<filter id="filter0_f_6_6619" x="0.5" y="0" width="199" height="199" filterUnits="userSpaceOnUse" color-interpolation-filters="sRGB">
<feFlood flood-opacity="0" result="BackgroundImageFix"/>
<feBlend mode="normal" in="SourceGraphic" in2="BackgroundImageFix" result="shape"/>
<feGaussianBlur stdDeviation="15" result="effect1_foregroundBlur_6_6619"/>
</filter>
</defs>
</svg>
