<svg width="630" height="283" viewBox="0 0 630 283" fill="none" xmlns="http://www.w3.org/2000/svg">
<g filter="url(#filter0_d_223_7)">
<path d="M165.662 5.5V94H138.037V49.875L124.412 94H100.662L87.0371 49.875V94H59.2871V5.5H93.2871L112.787 58.625L131.787 5.5H165.662ZM234.934 80.625H205.434L201.059 94H171.934L204.309 5.5H236.309L268.559 94H239.309L234.934 80.625ZM228.184 59.75L220.184 35.125L212.184 59.75H228.184ZM309.488 94.875C298.905 94.875 290.155 92.4167 283.238 87.5C276.405 82.5 272.697 75.2083 272.113 65.625H301.613C302.03 70.7083 304.28 73.25 308.363 73.25C309.863 73.25 311.113 72.9167 312.113 72.25C313.197 71.5 313.738 70.375 313.738 68.875C313.738 66.7917 312.613 65.125 310.363 63.875C308.113 62.5417 304.613 61.0417 299.863 59.375C294.197 57.375 289.488 55.4167 285.738 53.5C282.072 51.5833 278.905 48.7917 276.238 45.125C273.572 41.4583 272.28 36.75 272.363 31C272.363 25.25 273.822 20.375 276.738 16.375C279.738 12.2917 283.78 9.20833 288.863 7.12499C294.03 5.04166 299.822 4 306.238 4C317.072 4 325.655 6.5 331.988 11.5C338.405 16.5 341.78 23.5417 342.113 32.625H312.238C312.155 30.125 311.53 28.3333 310.363 27.25C309.197 26.1667 307.78 25.625 306.113 25.625C304.947 25.625 303.988 26.0417 303.238 26.875C302.488 27.625 302.113 28.7083 302.113 30.125C302.113 32.125 303.197 33.7917 305.363 35.125C307.613 36.375 311.155 37.9167 315.988 39.75C321.572 41.8333 326.155 43.8333 329.738 45.75C333.405 47.6667 336.572 50.3333 339.238 53.75C341.905 57.1667 343.238 61.4583 343.238 66.625C343.238 72.0417 341.905 76.9167 339.238 81.25C336.572 85.5 332.697 88.8333 327.613 91.25C322.53 93.6667 316.488 94.875 309.488 94.875ZM422.488 5.5V27.5H398.988V94H371.238V27.5H347.988V5.5H422.488ZM457.765 27.625V38.5H485.265V59.375H457.765V71.875H489.015V94H430.015V5.5H489.015V27.625H457.765ZM543.973 94L527.348 62.25H527.223V94H499.473V5.5H540.723C547.889 5.5 554.014 6.79166 559.098 9.37499C564.181 11.875 567.973 15.3333 570.473 19.75C573.056 24.0833 574.348 29 574.348 34.5C574.348 40.4167 572.681 45.6667 569.348 50.25C566.098 54.8333 561.389 58.125 555.223 60.125L574.473 94H543.973ZM527.223 43.75H538.223C540.889 43.75 542.889 43.1667 544.223 42C545.556 40.75 546.223 38.8333 546.223 36.25C546.223 33.9167 545.514 32.0833 544.098 30.75C542.764 29.4167 540.806 28.75 538.223 28.75H527.223V43.75ZM49.0422 183.14V188.36H62.2422V198.38H49.0422V204.38H64.0422V215H35.7222V172.52H64.0422V183.14H49.0422ZM120.122 172.52V215H106.862V193.82L100.322 215H88.922L82.382 193.82V215H69.062V172.52H85.382L94.742 198.02L103.862 172.52H120.122ZM200.625 156.75C199.541 155 198 153.667 196 152.75C194 151.75 191.583 151.25 188.75 151.25C183.416 151.25 179.291 153 176.375 156.5C173.458 159.917 172 164.625 172 170.625C172 177.542 173.625 182.708 176.875 186.125C180.125 189.542 185.125 191.25 191.875 191.25C198.291 191.25 203.458 188.667 207.375 183.5H185.25V163.875H230.375V191.625C226.541 198.208 221.25 203.875 214.5 208.625C207.75 213.292 199.208 215.625 188.875 215.625C179.708 215.625 171.708 213.75 164.875 210C158.125 206.167 152.916 200.833 149.25 194C145.666 187.167 143.875 179.375 143.875 170.625C143.875 161.875 145.666 154.083 149.25 147.25C152.916 140.417 158.125 135.125 164.875 131.375C171.625 127.542 179.541 125.625 188.625 125.625C200.208 125.625 209.625 128.417 216.875 134C224.208 139.583 228.541 147.167 229.875 156.75H200.625ZM297.119 201.625H267.619L263.244 215H234.119L266.494 126.5H298.494L330.744 215H301.494L297.119 201.625ZM290.369 180.75L282.369 156.125L274.369 180.75H290.369ZM443.423 126.5V215H415.798V170.875L402.173 215H378.423L364.798 170.875V215H337.048V126.5H371.048L390.548 179.625L409.548 126.5H443.423ZM483.695 148.625V159.5H511.195V180.375H483.695V192.875H514.945V215H455.945V126.5H514.945V148.625H483.695ZM560.028 215.875C549.444 215.875 540.694 213.417 533.778 208.5C526.944 203.5 523.236 196.208 522.653 186.625H552.153C552.57 191.708 554.82 194.25 558.903 194.25C560.403 194.25 561.653 193.917 562.653 193.25C563.736 192.5 564.278 191.375 564.278 189.875C564.278 187.792 563.153 186.125 560.903 184.875C558.653 183.542 555.153 182.042 550.403 180.375C544.736 178.375 540.028 176.417 536.278 174.5C532.611 172.583 529.444 169.792 526.778 166.125C524.111 162.458 522.819 157.75 522.903 152C522.903 146.25 524.361 141.375 527.278 137.375C530.278 133.292 534.319 130.208 539.403 128.125C544.569 126.042 550.361 125 556.778 125C567.611 125 576.195 127.5 582.528 132.5C588.945 137.5 592.32 144.542 592.653 153.625H562.778C562.695 151.125 562.07 149.333 560.903 148.25C559.736 147.167 558.32 146.625 556.653 146.625C555.486 146.625 554.528 147.042 553.778 147.875C553.028 148.625 552.653 149.708 552.653 151.125C552.653 153.125 553.736 154.792 555.903 156.125C558.153 157.375 561.694 158.917 566.528 160.75C572.111 162.833 576.695 164.833 580.278 166.75C583.945 168.667 587.111 171.333 589.778 174.75C592.444 178.167 593.778 182.458 593.778 187.625C593.778 193.042 592.444 197.917 589.778 202.25C587.111 206.5 583.236 209.833 578.153 212.25C573.07 214.667 567.028 215.875 560.028 215.875Z" fill="white"/>
</g>
<defs>
<filter id="filter0_d_223_7" x="31.7227" y="4" width="566.055" height="219.875" filterUnits="userSpaceOnUse" color-interpolation-filters="sRGB">
<feFlood flood-opacity="0" result="BackgroundImageFix"/>
<feColorMatrix in="SourceAlpha" type="matrix" values="0 0 0 0 0 0 0 0 0 0 0 0 0 0 0 0 0 0 127 0" result="hardAlpha"/>
<feOffset dy="4"/>
<feGaussianBlur stdDeviation="2"/>
<feComposite in2="hardAlpha" operator="out"/>
<feColorMatrix type="matrix" values="0 0 0 0 0 0 0 0 0 0 0 0 0 0 0 0 0 0 0.25 0"/>
<feBlend mode="normal" in2="BackgroundImageFix" result="effect1_dropShadow_223_7"/>
<feBlend mode="normal" in="SourceGraphic" in2="effect1_dropShadow_223_7" result="shape"/>
</filter>
</defs>
</svg>
