<svg width="589" height="207" viewBox="0 0 589 207" fill="none" xmlns="http://www.w3.org/2000/svg">
<g filter="url(#filter0_dd_272_41)">
<path d="M191.953 98V27.2H219.153L234.753 69.7L249.953 27.2H277.053V98H254.953V62.7L244.053 98H225.053L214.153 62.7V98H191.953ZM286.67 67.1V27.2H308.77V67.1C308.77 73.2 311.17 77.7 317.87 77.7C324.57 77.7 327.27 73.2 327.27 67.1V27.2H349.37V67.1C349.37 88 335.07 98.7 317.37 98.7C299.67 98.7 286.67 88 286.67 67.1ZM404.645 27.2H426.845V98H404.645L381.145 62.4V98H358.945V27.2H381.145L404.645 63.4V27.2ZM466.375 27.2C488.975 27.2 503.175 42 503.175 62.4C503.175 82.6 488.975 98 466.375 98H436.875V27.2H466.375ZM459.075 78.2H464.375C474.175 78.2 480.675 72.7 480.675 62.4C480.675 52.1 474.175 46.6 464.375 46.6H459.075V78.2ZM581.991 62.3C581.991 83.6 565.691 98.7 545.691 98.7C525.591 98.7 509.191 83.6 509.191 62.3C509.191 41 525.591 26 545.691 26C565.891 26 581.991 41 581.991 62.3ZM531.791 62.3C531.791 71.7 536.591 78 545.691 78C554.591 78 559.491 71.7 559.491 62.3C559.491 52.7 554.591 46.5 545.691 46.5C536.591 46.5 531.791 52.7 531.791 62.3ZM95.0723 162.6C106.372 162.6 113.472 170 113.472 180.2C113.472 190.3 106.372 198 95.0723 198H80.3223V162.6H95.0723ZM91.4223 188.1H94.0723C98.9723 188.1 102.222 185.35 102.222 180.2C102.222 175.05 98.9723 172.3 94.0723 172.3H91.4223V188.1ZM141.93 198L140.18 192.65H128.38L126.63 198H114.98L127.93 162.6H140.73L153.63 198H141.93ZM137.48 184.3L134.28 174.45L131.08 184.3H137.48ZM175.645 198V127.2H202.845L218.445 169.7L233.645 127.2H260.745V198H238.645V162.7L227.745 198H208.745L197.845 162.7V198H175.645ZM270.362 167.1V127.2H292.462V167.1C292.462 173.2 294.862 177.7 301.562 177.7C308.262 177.7 310.962 173.2 310.962 167.1V127.2H333.062V167.1C333.062 188 318.762 198.7 301.062 198.7C283.362 198.7 270.362 188 270.362 167.1ZM288.662 108.3L314.562 97.3V113.7L288.662 123.1V108.3ZM397.337 176.1C397.337 189.1 387.437 198.7 370.337 198.7C354.137 198.7 341.437 191.2 340.437 175.3H364.037C364.437 180.5 367.237 181.4 369.437 181.4C371.637 181.4 373.737 180.4 373.737 177.9C373.637 168.3 340.237 171.8 340.637 147.6C340.637 133.4 352.637 126 367.737 126C384.837 126 395.837 134.2 396.437 148.9H372.537C372.337 144.6 370.037 143.3 367.637 143.3C365.837 143.3 364.437 144.5 364.437 146.9C364.437 155.8 397.337 154.3 397.337 176.1ZM405.137 198V127.2H427.337V198H405.137ZM435.363 162.5C435.363 141.4 448.663 126.5 470.363 126.5C489.063 126.5 501.763 137.7 504.663 154.4H481.263C479.163 149.7 474.963 147 469.963 147C462.463 147 457.863 153.1 457.863 162.5C457.863 171.9 462.463 178 469.963 178C474.963 178 479.163 175.3 481.263 170.6H504.663C501.763 187.3 489.063 198.5 470.363 198.5C448.663 198.5 435.363 183.6 435.363 162.5ZM561.556 198L558.056 187.3H534.456L530.956 198H507.656L533.556 127.2H559.156L584.956 198H561.556ZM552.656 170.6L546.256 150.9L539.856 170.6H552.656Z" fill="white"/>
</g>
<g filter="url(#filter1_d_272_41)">
<g filter="url(#filter2_d_272_41)">
<g filter="url(#filter3_f_272_41)">
<path d="M59.8943 88.8289V146H65.0324C68.1747 146 70.213 143.96 70.213 140.899V93.9296C70.213 90.8692 68.1747 88.8289 65.0324 88.8289H59.8943ZM43.928 146H55.2658V89.339C55.2658 65.0678 71.2321 45.0048 95.4788 45.0048C119.725 45.0048 135.225 65.0678 135.225 89.339V146H146.562C154.291 146 161 139.837 161 131.59V102.218C161 95.4599 156.371 89.8065 150.681 88.2338C150.129 55.8439 127.454 30 95.5212 30C63.5887 30 40.7857 55.8439 40.3186 88.2338C34.1614 89.8065 30 95.4599 30 102.218V131.59C30 139.837 36.1997 146 43.928 146ZM120.277 93.9296V140.899C120.277 143.96 122.825 146 125.416 146H130.554V88.8289H125.416C122.825 88.8289 120.277 90.8692 120.277 93.9296Z" fill="#60C8D8"/>
</g>
<path d="M59.8943 88.8289V146H65.0324C68.1747 146 70.213 143.96 70.213 140.899V93.9296C70.213 90.8692 68.1747 88.8289 65.0324 88.8289H59.8943ZM43.928 146H55.2658V89.339C55.2658 65.0678 71.2321 45.0048 95.4788 45.0048C119.725 45.0048 135.225 65.0678 135.225 89.339V146H146.562C154.291 146 161 139.837 161 131.59V102.218C161 95.4599 156.371 89.8065 150.681 88.2338C150.129 55.8439 127.454 30 95.5212 30C63.5887 30 40.7857 55.8439 40.3186 88.2338C34.1614 89.8065 30 95.4599 30 102.218V131.59C30 139.837 36.1997 146 43.928 146ZM120.277 93.9296V140.899C120.277 143.96 122.825 146 125.416 146H130.554V88.8289H125.416C122.825 88.8289 120.277 90.8692 120.277 93.9296Z" fill="white"/>
</g>
</g>
<defs>
<filter id="filter0_dd_272_41" x="76.3223" y="26" width="512.634" height="180.7" filterUnits="userSpaceOnUse" color-interpolation-filters="sRGB">
<feFlood flood-opacity="0" result="BackgroundImageFix"/>
<feColorMatrix in="SourceAlpha" type="matrix" values="0 0 0 0 0 0 0 0 0 0 0 0 0 0 0 0 0 0 127 0" result="hardAlpha"/>
<feOffset dy="4"/>
<feGaussianBlur stdDeviation="2"/>
<feComposite in2="hardAlpha" operator="out"/>
<feColorMatrix type="matrix" values="0 0 0 0 0 0 0 0 0 0 0 0 0 0 0 0 0 0 0.25 0"/>
<feBlend mode="normal" in2="BackgroundImageFix" result="effect1_dropShadow_272_41"/>
<feColorMatrix in="SourceAlpha" type="matrix" values="0 0 0 0 0 0 0 0 0 0 0 0 0 0 0 0 0 0 127 0" result="hardAlpha"/>
<feOffset dy="4"/>
<feGaussianBlur stdDeviation="2"/>
<feComposite in2="hardAlpha" operator="out"/>
<feColorMatrix type="matrix" values="0 0 0 0 0 0 0 0 0 0 0 0 0 0 0 0 0 0 0.25 0"/>
<feBlend mode="normal" in2="effect1_dropShadow_272_41" result="effect2_dropShadow_272_41"/>
<feBlend mode="normal" in="SourceGraphic" in2="effect2_dropShadow_272_41" result="shape"/>
</filter>
<filter id="filter1_d_272_41" x="26" y="30" width="139" height="124" filterUnits="userSpaceOnUse" color-interpolation-filters="sRGB">
<feFlood flood-opacity="0" result="BackgroundImageFix"/>
<feColorMatrix in="SourceAlpha" type="matrix" values="0 0 0 0 0 0 0 0 0 0 0 0 0 0 0 0 0 0 127 0" result="hardAlpha"/>
<feOffset dy="4"/>
<feGaussianBlur stdDeviation="2"/>
<feComposite in2="hardAlpha" operator="out"/>
<feColorMatrix type="matrix" values="0 0 0 0 0 0 0 0 0 0 0 0 0 0 0 0 0 0 0.25 0"/>
<feBlend mode="normal" in2="BackgroundImageFix" result="effect1_dropShadow_272_41"/>
<feBlend mode="normal" in="SourceGraphic" in2="effect1_dropShadow_272_41" result="shape"/>
</filter>
<filter id="filter2_d_272_41" x="26" y="30" width="139" height="124" filterUnits="userSpaceOnUse" color-interpolation-filters="sRGB">
<feFlood flood-opacity="0" result="BackgroundImageFix"/>
<feColorMatrix in="SourceAlpha" type="matrix" values="0 0 0 0 0 0 0 0 0 0 0 0 0 0 0 0 0 0 127 0" result="hardAlpha"/>
<feOffset dy="4"/>
<feGaussianBlur stdDeviation="2"/>
<feComposite in2="hardAlpha" operator="out"/>
<feColorMatrix type="matrix" values="0 0 0 0 0 0 0 0 0 0 0 0 0 0 0 0 0 0 0.25 0"/>
<feBlend mode="normal" in2="BackgroundImageFix" result="effect1_dropShadow_272_41"/>
<feBlend mode="normal" in="SourceGraphic" in2="effect1_dropShadow_272_41" result="shape"/>
</filter>
<filter id="filter3_f_272_41" x="0" y="0" width="191" height="176" filterUnits="userSpaceOnUse" color-interpolation-filters="sRGB">
<feFlood flood-opacity="0" result="BackgroundImageFix"/>
<feBlend mode="normal" in="SourceGraphic" in2="BackgroundImageFix" result="shape"/>
<feGaussianBlur stdDeviation="15" result="effect1_foregroundBlur_272_41"/>
</filter>
</defs>
</svg>
