<svg width="650" height="228" viewBox="0 0 650 228" fill="none" xmlns="http://www.w3.org/2000/svg">
<g filter="url(#filter0_dd_222_6)">
<path d="M340.053 48.2V119H317.953V83.7L307.053 119H288.053L277.153 83.7V119H254.953V48.2H282.153L297.753 90.7L312.953 48.2H340.053ZM371.77 48.2V88.1C371.77 91.3667 372.47 93.9667 373.87 95.9C375.337 97.7667 377.67 98.7 380.87 98.7C384.07 98.7 386.437 97.7667 387.97 95.9C389.504 93.9667 390.27 91.3667 390.27 88.1V48.2H412.37V88.1C412.37 94.8333 410.97 100.6 408.17 105.4C405.37 110.133 401.537 113.7 396.67 116.1C391.804 118.5 386.37 119.7 380.37 119.7C374.37 119.7 369.037 118.5 364.37 116.1C359.77 113.7 356.17 110.133 353.57 105.4C350.97 100.667 349.67 94.9 349.67 88.1V48.2H371.77ZM489.845 119H467.645L444.145 83.4V119H421.945V48.2H444.145L467.645 84.4V48.2H489.845V119ZM529.375 48.2C536.775 48.2 543.242 49.7 548.775 52.7C554.375 55.7 558.675 59.8667 561.675 65.2C564.675 70.5333 566.175 76.6 566.175 83.4C566.175 90.1333 564.675 96.2 561.675 101.6C558.675 107 554.375 111.267 548.775 114.4C543.242 117.467 536.775 119 529.375 119H499.875V48.2H529.375ZM527.375 99.2C532.375 99.2 536.342 97.8333 539.275 95.1C542.208 92.3667 543.675 88.4667 543.675 83.4C543.675 78.3333 542.208 74.4333 539.275 71.7C536.342 68.9667 532.375 67.6 527.375 67.6H522.075V99.2H527.375ZM608.691 119.7C602.025 119.7 595.891 118.133 590.291 115C584.758 111.867 580.358 107.533 577.091 102C573.825 96.4667 572.191 90.2333 572.191 83.3C572.191 76.3667 573.825 70.1333 577.091 64.6C580.358 59.0667 584.758 54.7667 590.291 51.7C595.891 48.5667 602.025 47 608.691 47C615.358 47 621.458 48.5667 626.991 51.7C632.525 54.7667 636.891 59.0667 640.091 64.6C643.358 70.1333 644.991 76.3667 644.991 83.3C644.991 90.2333 643.358 96.4667 640.091 102C636.891 107.533 632.491 111.867 626.891 115C621.358 118.133 615.291 119.7 608.691 119.7ZM608.691 99C613.091 99 616.491 97.6 618.891 94.8C621.291 91.9333 622.491 88.1 622.491 83.3C622.491 78.4333 621.291 74.6 618.891 71.8C616.491 68.9333 613.091 67.5 608.691 67.5C604.225 67.5 600.791 68.9333 598.391 71.8C595.991 74.6 594.791 78.4333 594.791 83.3C594.791 88.1 595.991 91.9333 598.391 94.8C600.791 97.6 604.225 99 608.691 99ZM174.723 183.6C178.423 183.6 181.656 184.35 184.423 185.85C187.223 187.35 189.373 189.433 190.873 192.1C192.373 194.767 193.123 197.8 193.123 201.2C193.123 204.567 192.373 207.6 190.873 210.3C189.373 213 187.223 215.133 184.423 216.7C181.656 218.233 178.423 219 174.723 219H159.973V183.6H174.723ZM173.723 209.1C176.223 209.1 178.206 208.417 179.673 207.05C181.139 205.683 181.873 203.733 181.873 201.2C181.873 198.667 181.139 196.717 179.673 195.35C178.206 193.983 176.223 193.3 173.723 193.3H171.073V209.1H173.723ZM214.381 219.35C211.048 219.35 207.981 218.567 205.181 217C202.414 215.433 200.214 213.267 198.581 210.5C196.948 207.733 196.131 204.617 196.131 201.15C196.131 197.683 196.948 194.567 198.581 191.8C200.214 189.033 202.414 186.883 205.181 185.35C207.981 183.783 211.048 183 214.381 183C217.714 183 220.764 183.783 223.531 185.35C226.298 186.883 228.481 189.033 230.081 191.8C231.714 194.567 232.531 197.683 232.531 201.15C232.531 204.617 231.714 207.733 230.081 210.5C228.481 213.267 226.281 215.433 223.481 217C220.714 218.567 217.681 219.35 214.381 219.35ZM214.381 209C216.581 209 218.281 208.3 219.481 206.9C220.681 205.467 221.281 203.55 221.281 201.15C221.281 198.717 220.681 196.8 219.481 195.4C218.281 193.967 216.581 193.25 214.381 193.25C212.148 193.25 210.431 193.967 209.231 195.4C208.031 196.8 207.431 198.717 207.431 201.15C207.431 203.55 208.031 205.467 209.231 206.9C210.431 208.3 212.148 209 214.381 209ZM250.385 219.35C246.152 219.35 242.652 218.367 239.885 216.4C237.152 214.4 235.668 211.483 235.435 207.65H247.235C247.402 209.683 248.302 210.7 249.935 210.7C250.535 210.7 251.035 210.567 251.435 210.3C251.868 210 252.085 209.55 252.085 208.95C252.085 208.117 251.635 207.45 250.735 206.95C249.835 206.417 248.435 205.817 246.535 205.15C244.268 204.35 242.385 203.567 240.885 202.8C239.418 202.033 238.152 200.917 237.085 199.45C236.018 197.983 235.502 196.1 235.535 193.8C235.535 191.5 236.118 189.55 237.285 187.95C238.485 186.317 240.102 185.083 242.135 184.25C244.202 183.417 246.518 183 249.085 183C253.418 183 256.852 184 259.385 186C261.952 188 263.302 190.817 263.435 194.45H251.485C251.452 193.45 251.202 192.733 250.735 192.3C250.268 191.867 249.702 191.65 249.035 191.65C248.568 191.65 248.185 191.817 247.885 192.15C247.585 192.45 247.435 192.883 247.435 193.45C247.435 194.25 247.868 194.917 248.735 195.45C249.635 195.95 251.052 196.567 252.985 197.3C255.218 198.133 257.052 198.933 258.485 199.7C259.952 200.467 261.218 201.533 262.285 202.9C263.352 204.267 263.885 205.983 263.885 208.05C263.885 210.217 263.352 212.167 262.285 213.9C261.218 215.6 259.668 216.933 257.635 217.9C255.602 218.867 253.185 219.35 250.385 219.35ZM330.677 172.4C329.811 171 328.577 169.933 326.977 169.2C325.377 168.4 323.444 168 321.177 168C316.911 168 313.611 169.4 311.277 172.2C308.944 174.933 307.777 178.7 307.777 183.5C307.777 189.033 309.077 193.167 311.677 195.9C314.277 198.633 318.277 200 323.677 200C328.811 200 332.944 197.933 336.077 193.8H318.377V178.1H354.477V200.3C351.411 205.567 347.177 210.1 341.777 213.9C336.377 217.633 329.544 219.5 321.277 219.5C313.944 219.5 307.544 218 302.077 215C296.677 211.933 292.511 207.667 289.577 202.2C286.711 196.733 285.277 190.5 285.277 183.5C285.277 176.5 286.711 170.267 289.577 164.8C292.511 159.333 296.677 155.1 302.077 152.1C307.477 149.033 313.811 147.5 321.077 147.5C330.344 147.5 337.877 149.733 343.677 154.2C349.544 158.667 353.011 164.733 354.077 172.4H330.677ZM407.873 208.3H384.273L380.773 219H357.473L383.373 148.2H408.973L434.773 219H411.373L407.873 208.3ZM402.473 191.6L396.073 171.9L389.673 191.6H402.473ZM524.916 148.2V219H502.816V183.7L491.916 219H472.916L462.016 183.7V219H439.816V148.2H467.016L482.616 190.7L497.816 148.2H524.916ZM557.134 165.9V174.6H579.134V191.3H557.134V201.3H582.134V219H534.934V148.2H582.134V165.9H557.134ZM618.2 219.7C609.733 219.7 602.733 217.733 597.2 213.8C591.733 209.8 588.767 203.967 588.3 196.3H611.9C612.233 200.367 614.033 202.4 617.3 202.4C618.5 202.4 619.5 202.133 620.3 201.6C621.167 201 621.6 200.1 621.6 198.9C621.6 197.233 620.7 195.9 618.9 194.9C617.1 193.833 614.3 192.633 610.5 191.3C605.967 189.7 602.2 188.133 599.2 186.6C596.267 185.067 593.733 182.833 591.6 179.9C589.467 176.967 588.433 173.2 588.5 168.6C588.5 164 589.667 160.1 592 156.9C594.4 153.633 597.633 151.167 601.7 149.5C605.833 147.833 610.467 147 615.6 147C624.267 147 631.133 149 636.2 153C641.333 157 644.033 162.633 644.3 169.9H620.4C620.333 167.9 619.833 166.467 618.9 165.6C617.967 164.733 616.833 164.3 615.5 164.3C614.567 164.3 613.8 164.633 613.2 165.3C612.6 165.9 612.3 166.767 612.3 167.9C612.3 169.5 613.167 170.833 614.9 171.9C616.7 172.9 619.533 174.133 623.4 175.6C627.867 177.267 631.533 178.867 634.4 180.4C637.333 181.933 639.867 184.067 642 186.8C644.133 189.533 645.2 192.967 645.2 197.1C645.2 201.433 644.133 205.333 642 208.8C639.867 212.2 636.767 214.867 632.7 216.8C628.633 218.733 623.8 219.7 618.2 219.7Z" fill="white"/>
</g>
<g filter="url(#filter1_d_222_6)">
<g filter="url(#filter2_f_222_6)">
<path d="M83.6277 50.3812C86.3185 49.7783 97.9468 50.0072 101.14 50.2751C102.005 50.3477 103.099 50.4258 103.814 50.9506C104.746 51.6316 109.073 59.2012 109.603 60.6303C111.077 64.5993 110.239 67.4463 111.077 70.8626C112.221 75.5239 116.241 77.5502 120.779 77.8907C129.839 78.5718 145.264 78.5941 154.307 77.8907C159.203 77.5056 163.295 74.72 164.021 69.6178C164.953 63.0753 163.647 62.9358 167.554 56.8511C168.894 54.7633 171.479 50.5766 173.958 50.2863C177.514 49.8732 185.837 49.9458 189.477 50.2751C192.508 50.5542 195.919 55.0759 197.789 57.4428C214.341 78.3708 221.241 113.338 223.58 139.508C223.993 144.114 225.149 154.156 223.781 158.092C222.743 161.089 216.094 166.476 213.102 167.492C209.194 168.815 204.862 168.235 201.814 165.41C193.195 157.438 185.083 146.38 176.699 137.822C175.493 136.589 174.371 135.053 172.523 134.886L102.776 134.685L99.2084 135.718L71.3184 165.963C64.078 170.551 57.245 167.967 52.3492 161.636C49.5245 157.986 50.1274 154.368 50.2279 149.925C50.8308 122.811 57.3399 70.7789 79.7814 52.8095C80.5183 52.2178 82.8518 50.5542 83.6277 50.3812ZM76.2142 107.951C74.4167 118.312 86.8823 125.625 94.3796 117.938C97.4834 114.756 96.847 111.63 97.5392 107.723C100.487 107.427 102.34 107.834 105.12 106.511C112.746 102.877 112.355 90.9757 104.556 87.8217C101.994 86.7834 100.191 87.2076 97.5448 86.8838C96.8694 82.859 97.4555 79.638 94.1786 76.4561C86.5641 69.0707 74.4558 76.4617 76.2254 86.6494C58.4229 85.706 58.4676 108.945 76.2254 107.957L76.2142 107.951ZM194.501 87.6598C194.501 81.3629 189.382 76.2551 183.074 76.2551C176.766 76.2551 171.646 81.3629 171.646 87.6598C171.646 93.9566 176.766 99.0644 183.074 99.0644C189.382 99.0644 194.501 93.9566 194.501 87.6598ZM174.795 106.924C174.795 100.622 169.676 95.5141 163.362 95.5141C157.048 95.5141 151.929 100.622 151.929 106.924C151.929 113.227 157.048 118.334 163.362 118.334C169.676 118.334 174.795 113.227 174.795 106.924ZM206.849 112.925C206.849 106.628 201.73 101.521 195.422 101.521C189.114 101.521 183.995 106.628 183.995 112.925C183.995 119.222 189.114 124.33 195.422 124.33C201.73 124.33 206.849 119.222 206.849 112.925ZM117.245 63.6615C117.34 65.7827 116.609 69.8355 119.026 70.8682L155.044 71.0915C158.399 70.0365 157.277 66.4191 157.439 63.6615H117.245ZM103.602 95.4582C101.196 91.2827 93.7878 94.8833 91.5214 92.4773C88.7357 89.5187 92.9337 80.52 87.2731 79.9618C81.1715 79.3589 83.4938 87.9389 82.9076 91.0259C81.9418 96.0779 70.174 90.2276 69.5209 96.9264C68.9347 102.939 77.5261 100.694 80.6021 101.281C85.6765 102.246 79.7814 114.187 86.4971 114.628C93.1514 115.069 88.6073 104.518 91.7223 101.911C93.6985 100.253 100.464 102.319 102.898 100.315C104.182 99.2542 104.445 96.9152 103.602 95.4527V95.4582ZM163.329 102.146C160.677 102.146 158.533 104.289 158.533 106.935C158.533 109.581 160.682 111.725 163.329 111.725C165.975 111.725 168.124 109.581 168.124 106.935C168.124 104.289 165.975 102.146 163.329 102.146ZM183.051 82.8646C180.405 82.8646 178.256 85.0082 178.256 87.6486C178.256 90.289 180.405 92.4326 183.051 92.4326C185.698 92.4326 187.847 90.289 187.847 87.6486C187.847 85.0082 185.698 82.8646 183.051 82.8646ZM195.417 108.108C192.754 108.108 190.599 110.262 190.599 112.92C190.599 115.577 192.754 117.732 195.417 117.732C198.079 117.732 200.234 115.577 200.234 112.92C200.234 110.262 198.079 108.108 195.417 108.108Z" fill="#60C8D8"/>
</g>
<path d="M83.6277 50.3812C86.3185 49.7783 97.9468 50.0072 101.14 50.2751C102.005 50.3477 103.099 50.4258 103.814 50.9506C104.746 51.6316 109.073 59.2012 109.603 60.6303C111.077 64.5993 110.239 67.4463 111.077 70.8626C112.221 75.5239 116.241 77.5502 120.779 77.8907C129.839 78.5718 145.264 78.5941 154.307 77.8907C159.203 77.5056 163.295 74.72 164.021 69.6178C164.953 63.0753 163.647 62.9358 167.554 56.8511C168.894 54.7633 171.479 50.5766 173.958 50.2863C177.514 49.8732 185.837 49.9458 189.477 50.2751C192.508 50.5542 195.919 55.0759 197.789 57.4428C214.341 78.3708 221.241 113.338 223.58 139.508C223.993 144.114 225.149 154.156 223.781 158.092C222.743 161.089 216.094 166.476 213.102 167.492C209.194 168.815 204.862 168.235 201.814 165.41C193.195 157.438 185.083 146.38 176.699 137.822C175.493 136.589 174.371 135.053 172.523 134.886L102.776 134.685L99.2084 135.718L71.3184 165.963C64.078 170.551 57.245 167.967 52.3492 161.636C49.5245 157.986 50.1274 154.368 50.2279 149.925C50.8308 122.811 57.3399 70.7789 79.7814 52.8095C80.5183 52.2178 82.8518 50.5542 83.6277 50.3812ZM76.2142 107.951C74.4167 118.312 86.8823 125.625 94.3796 117.938C97.4834 114.756 96.847 111.63 97.5392 107.723C100.487 107.427 102.34 107.834 105.12 106.511C112.746 102.877 112.355 90.9757 104.556 87.8217C101.994 86.7834 100.191 87.2076 97.5448 86.8838C96.8694 82.859 97.4555 79.638 94.1786 76.4561C86.5641 69.0707 74.4558 76.4617 76.2254 86.6494C58.4229 85.706 58.4676 108.945 76.2254 107.957L76.2142 107.951ZM194.501 87.6598C194.501 81.3629 189.382 76.2551 183.074 76.2551C176.766 76.2551 171.646 81.3629 171.646 87.6598C171.646 93.9566 176.766 99.0644 183.074 99.0644C189.382 99.0644 194.501 93.9566 194.501 87.6598ZM174.795 106.924C174.795 100.622 169.676 95.5141 163.362 95.5141C157.048 95.5141 151.929 100.622 151.929 106.924C151.929 113.227 157.048 118.334 163.362 118.334C169.676 118.334 174.795 113.227 174.795 106.924ZM206.849 112.925C206.849 106.628 201.73 101.521 195.422 101.521C189.114 101.521 183.995 106.628 183.995 112.925C183.995 119.222 189.114 124.33 195.422 124.33C201.73 124.33 206.849 119.222 206.849 112.925ZM117.245 63.6615C117.34 65.7827 116.609 69.8355 119.026 70.8682L155.044 71.0915C158.399 70.0365 157.277 66.4191 157.439 63.6615H117.245ZM103.602 95.4582C101.196 91.2827 93.7878 94.8833 91.5214 92.4773C88.7357 89.5187 92.9337 80.52 87.2731 79.9618C81.1715 79.3589 83.4938 87.9389 82.9076 91.0259C81.9418 96.0779 70.174 90.2276 69.5209 96.9264C68.9347 102.939 77.5261 100.694 80.6021 101.281C85.6765 102.246 79.7814 114.187 86.4971 114.628C93.1514 115.069 88.6073 104.518 91.7223 101.911C93.6985 100.253 100.464 102.319 102.898 100.315C104.182 99.2542 104.445 96.9152 103.602 95.4527V95.4582ZM163.329 102.146C160.677 102.146 158.533 104.289 158.533 106.935C158.533 109.581 160.682 111.725 163.329 111.725C165.975 111.725 168.124 109.581 168.124 106.935C168.124 104.289 165.975 102.146 163.329 102.146ZM183.051 82.8646C180.405 82.8646 178.256 85.0082 178.256 87.6486C178.256 90.289 180.405 92.4326 183.051 92.4326C185.698 92.4326 187.847 90.289 187.847 87.6486C187.847 85.0082 185.698 82.8646 183.051 82.8646ZM195.417 108.108C192.754 108.108 190.599 110.262 190.599 112.92C190.599 115.577 192.754 117.732 195.417 117.732C198.079 117.732 200.234 115.577 200.234 112.92C200.234 110.262 198.079 108.108 195.417 108.108Z" fill="white"/>
</g>
<defs>
<filter id="filter0_dd_222_6" x="155.973" y="47" width="493.228" height="180.7" filterUnits="userSpaceOnUse" color-interpolation-filters="sRGB">
<feFlood flood-opacity="0" result="BackgroundImageFix"/>
<feColorMatrix in="SourceAlpha" type="matrix" values="0 0 0 0 0 0 0 0 0 0 0 0 0 0 0 0 0 0 127 0" result="hardAlpha"/>
<feOffset dy="4"/>
<feGaussianBlur stdDeviation="2"/>
<feComposite in2="hardAlpha" operator="out"/>
<feColorMatrix type="matrix" values="0 0 0 0 0 0 0 0 0 0 0 0 0 0 0 0 0 0 0.25 0"/>
<feBlend mode="normal" in2="BackgroundImageFix" result="effect1_dropShadow_222_6"/>
<feColorMatrix in="SourceAlpha" type="matrix" values="0 0 0 0 0 0 0 0 0 0 0 0 0 0 0 0 0 0 127 0" result="hardAlpha"/>
<feOffset dy="4"/>
<feGaussianBlur stdDeviation="2"/>
<feComposite in2="hardAlpha" operator="out"/>
<feColorMatrix type="matrix" values="0 0 0 0 0 0 0 0 0 0 0 0 0 0 0 0 0 0 0.25 0"/>
<feBlend mode="normal" in2="effect1_dropShadow_222_6" result="effect2_dropShadow_222_6"/>
<feBlend mode="normal" in="SourceGraphic" in2="effect2_dropShadow_222_6" result="shape"/>
</filter>
<filter id="filter1_d_222_6" x="46.1055" y="50" width="182.324" height="126.292" filterUnits="userSpaceOnUse" color-interpolation-filters="sRGB">
<feFlood flood-opacity="0" result="BackgroundImageFix"/>
<feColorMatrix in="SourceAlpha" type="matrix" values="0 0 0 0 0 0 0 0 0 0 0 0 0 0 0 0 0 0 127 0" result="hardAlpha"/>
<feOffset dy="4"/>
<feGaussianBlur stdDeviation="2"/>
<feComposite in2="hardAlpha" operator="out"/>
<feColorMatrix type="matrix" values="0 0 0 0 0 0 0 0 0 0 0 0 0 0 0 0 0 0 0.25 0"/>
<feBlend mode="normal" in2="BackgroundImageFix" result="effect1_dropShadow_222_6"/>
<feBlend mode="normal" in="SourceGraphic" in2="effect1_dropShadow_222_6" result="shape"/>
</filter>
<filter id="filter2_f_222_6" x="0.105469" y="0" width="274.324" height="218.292" filterUnits="userSpaceOnUse" color-interpolation-filters="sRGB">
<feFlood flood-opacity="0" result="BackgroundImageFix"/>
<feBlend mode="normal" in="SourceGraphic" in2="BackgroundImageFix" result="shape"/>
<feGaussianBlur stdDeviation="25" result="effect1_foregroundBlur_222_6"/>
</filter>
</defs>
</svg>
