<svg width="641" height="271" viewBox="0 0 641 271" fill="none" xmlns="http://www.w3.org/2000/svg">
<g filter="url(#filter0_dd_272_300)">
<path d="M178.984 136V65.2H206.184L221.784 107.7L236.984 65.2H264.084V136H241.984V100.7L231.084 136H212.084L201.184 100.7V136H178.984ZM273.702 105.1V65.2H295.802V105.1C295.802 111.2 298.202 115.7 304.902 115.7C311.602 115.7 314.302 111.2 314.302 105.1V65.2H336.402V105.1C336.402 126 322.102 136.7 304.402 136.7C286.702 136.7 273.702 126 273.702 105.1ZM391.677 65.2H413.877V136H391.677L368.177 100.4V136H345.977V65.2H368.177L391.677 101.4V65.2ZM453.406 65.2C476.006 65.2 490.206 80 490.206 100.4C490.206 120.6 476.006 136 453.406 136H423.906V65.2H453.406ZM446.106 116.2H451.406C461.206 116.2 467.706 110.7 467.706 100.4C467.706 90.1 461.206 84.6 451.406 84.6H446.106V116.2ZM569.023 100.3C569.023 121.6 552.723 136.7 532.723 136.7C512.623 136.7 496.223 121.6 496.223 100.3C496.223 79 512.623 64 532.723 64C552.923 64 569.023 79 569.023 100.3ZM518.823 100.3C518.823 109.7 523.623 116 532.723 116C541.623 116 546.523 109.7 546.523 100.3C546.523 90.7 541.623 84.5 532.723 84.5C523.623 84.5 518.823 90.7 518.823 100.3ZM73.3145 200.6C84.6145 200.6 91.7145 208 91.7145 218.2C91.7145 228.3 84.6145 236 73.3145 236H58.5645V200.6H73.3145ZM69.6645 226.1H72.3145C77.2145 226.1 80.4645 223.35 80.4645 218.2C80.4645 213.05 77.2145 210.3 72.3145 210.3H69.6645V226.1ZM120.173 236L118.423 230.65H106.623L104.873 236H93.2227L106.173 200.6H118.973L131.873 236H120.173ZM115.723 222.3L112.523 212.45L109.323 222.3H115.723ZM161.745 225.05C161.745 231.55 156.795 236.35 148.245 236.35C140.145 236.35 133.795 232.6 133.295 224.65H145.095C145.295 227.25 146.695 227.7 147.795 227.7C148.895 227.7 149.945 227.2 149.945 225.95C149.895 221.15 133.195 222.9 133.395 210.8C133.395 203.7 139.395 200 146.945 200C155.495 200 160.995 204.1 161.295 211.45H149.345C149.245 209.3 148.095 208.65 146.895 208.65C145.995 208.65 145.295 209.25 145.295 210.45C145.295 214.9 161.745 214.15 161.745 225.05ZM239.837 214.1C239.837 227.1 229.937 236.7 212.837 236.7C196.637 236.7 183.937 229.2 182.937 213.3H206.537C206.937 218.5 209.737 219.4 211.937 219.4C214.137 219.4 216.237 218.4 216.237 215.9C216.137 206.3 182.737 209.8 183.137 185.6C183.137 171.4 195.137 164 210.237 164C227.337 164 238.337 172.2 238.937 186.9H215.037C214.837 182.6 212.537 181.3 210.137 181.3C208.337 181.3 206.937 182.5 206.937 184.9C206.937 193.8 239.837 192.3 239.837 214.1ZM251.137 212.9V198.1H244.137V179.6H251.137V166H273.337V179.6H282.537V198.1H273.337V213.3C273.337 215.9 274.537 217.1 277.437 217.1H282.737V236H274.337C261.137 236 251.137 230.4 251.137 212.9ZM288.191 207.8C288.191 189.6 298.491 178.9 311.491 178.9C318.991 178.9 324.391 182.2 327.091 187.3V179.6H349.191V236H327.091V228.3C324.391 233.4 318.991 236.7 311.491 236.7C298.491 236.7 288.191 226 288.191 207.8ZM327.091 207.8C327.091 201.6 323.491 198.3 318.891 198.3C314.291 198.3 310.691 201.6 310.691 207.8C310.691 214 314.291 217.3 318.891 217.3C323.491 217.3 327.091 214 327.091 207.8ZM381.36 212.9V236H359.16V179.6H381.36V190C385.76 183.7 392.56 179.2 399.86 179.2V202.9H393.56C385.56 202.9 381.36 205.2 381.36 212.9ZM409.34 212.9V198.1H402.34V179.6H409.34V166H431.54V179.6H440.74V198.1H431.54V213.3C431.54 215.9 432.74 217.1 435.64 217.1H440.94V236H432.54C419.34 236 409.34 230.4 409.34 212.9ZM509.095 179.6V236H486.895V227.4C483.695 232.3 478.095 236.4 469.595 236.4C456.595 236.4 448.995 226.9 448.995 212.3V179.6H471.095V209.5C471.095 214.9 474.195 218.2 478.995 218.2C483.895 218.2 486.895 214.9 486.895 209.5V179.6H509.095ZM541.321 187.3C544.021 182.2 549.321 178.9 556.821 178.9C569.821 178.9 580.121 189.6 580.121 207.8C580.121 226 569.821 236.7 556.821 236.7C549.321 236.7 544.021 233.4 541.321 228.3V263H519.121V179.6H541.321V187.3ZM557.621 207.8C557.621 201.6 554.021 198.3 549.421 198.3C544.821 198.3 541.221 201.6 541.221 207.8C541.221 214 544.821 217.3 549.421 217.3C554.021 217.3 557.621 214 557.621 207.8ZM636.19 219.1C636.19 229.1 627.19 236.7 612.19 236.7C595.89 236.7 585.19 228 584.19 216.5H605.49C605.99 219.9 608.69 221.4 612.09 221.4C614.39 221.4 615.79 220.2 615.79 218.8C615.79 211.4 586.69 218.2 586.69 197.5C586.69 187.3 594.79 178.9 610.69 178.9C626.79 178.9 634.69 188 636.29 199.1H616.59C615.99 196.1 613.79 194.3 610.19 194.3C607.99 194.3 606.69 195.2 606.69 196.9C606.69 203.9 636.19 197.4 636.19 219.1Z" fill="white"/>
</g>
<g filter="url(#filter1_f_272_300)">
<path d="M142.914 56.5728H125.89V53.3785C125.89 51.5156 124.38 50 122.512 50H73.2022C71.3393 50 69.8237 51.5103 69.8237 53.3785V56.5728H52.7996C51.2525 56.5728 50 57.8253 50 59.3725V73.9705C50 78.0858 50.6631 82.201 51.9682 86.2058C53.2575 90.1631 55.1783 94.0153 57.6727 97.6621C61.9826 103.951 68.4344 108.419 75.8492 110.25L82.3431 111.85C83.3061 113.276 84.3165 114.67 85.3848 116.033L90.5683 122.659C91.8892 124.343 92.6049 126.422 92.6049 128.563V138.804C92.6049 142.193 89.8579 144.94 86.4689 144.94H79.9855C78.3121 144.94 76.9491 146.298 76.9491 147.977V161.312H75.665C73.9916 161.312 72.6286 162.669 72.6286 164.348V170H123.075V164.348C123.075 162.675 121.717 161.312 120.038 161.312H118.754V147.977C118.754 146.303 117.396 144.94 115.718 144.94H109.234C105.845 144.94 103.098 142.193 103.098 138.804V128.563C103.098 126.422 103.814 124.343 105.135 122.659L110.318 116.033C111.387 114.67 112.397 113.276 113.36 111.85L119.854 110.25C127.269 108.419 133.726 103.951 138.031 97.6621C140.53 94.0153 142.446 90.1631 143.735 86.2058C145.04 82.201 145.703 78.0858 145.703 73.9705V59.3725C145.714 57.8253 144.461 56.5728 142.914 56.5728ZM77.1912 104.819C71.113 103.319 65.819 99.6566 62.2879 94.4994C57.9095 88.1055 55.5993 81.0117 55.5993 73.9705V62.1668H69.829V70.892C69.829 82.8746 72.7654 94.6047 78.3015 105.093L77.1912 104.819ZM140.114 73.9705C140.114 81.0064 137.799 88.1055 133.421 94.4994C129.889 99.6514 124.595 103.319 118.517 104.819L117.412 105.093C122.948 94.6099 125.885 82.8799 125.885 70.892V62.1668H140.114V73.9705Z" fill="#60C8D8"/>
</g>
<g filter="url(#filter2_d_272_300)">
<path d="M143.211 56.5728H126.187V53.3785C126.187 51.5156 124.677 50 122.808 50H73.4991C71.6362 50 70.1206 51.5103 70.1206 53.3785V56.5728H53.0965C51.5493 56.5728 50.2969 57.8253 50.2969 59.3725V73.9705C50.2969 78.0858 50.9599 82.201 52.265 86.2058C53.5543 90.1631 55.4751 94.0153 57.9696 97.6621C62.2795 103.951 68.7313 108.419 76.1461 110.25L82.64 111.85C83.603 113.276 84.6134 114.67 85.6817 116.033L90.8652 122.659C92.1861 124.343 92.9018 126.422 92.9018 128.563V138.804C92.9018 142.193 90.1548 144.94 86.7658 144.94H80.2824C78.6089 144.94 77.246 146.298 77.246 147.977V161.312H75.9619C74.2885 161.312 72.9255 162.669 72.9255 164.348V170H123.371V164.348C123.371 162.675 122.014 161.312 120.335 161.312H119.051V147.977C119.051 146.303 117.693 144.94 116.015 144.94H109.531C106.142 144.94 103.395 142.193 103.395 138.804V128.563C103.395 126.422 104.111 124.343 105.432 122.659L110.615 116.033C111.684 114.67 112.694 113.276 113.657 111.85L120.151 110.25C127.566 108.419 134.023 103.951 138.327 97.6621C140.827 94.0153 142.743 90.1631 144.032 86.2058C145.337 82.201 146 78.0858 146 73.9705V59.3725C146.011 57.8253 144.758 56.5728 143.211 56.5728ZM77.488 104.819C71.4099 103.319 66.1158 99.6566 62.5847 94.4994C58.2064 88.1055 55.8961 81.0117 55.8961 73.9705V62.1668H70.1258V70.892C70.1258 82.8746 73.0623 94.6047 78.5984 105.093L77.488 104.819ZM140.411 73.9705C140.411 81.0064 138.096 88.1055 133.717 94.4994C130.186 99.6514 124.892 103.319 118.814 104.819L117.709 105.093C123.245 94.6099 126.182 82.8799 126.182 70.892V62.1668H140.411V73.9705Z" fill="#60C8D8"/>
<path d="M143.211 56.5728H126.187V53.3785C126.187 51.5156 124.677 50 122.808 50H73.4991C71.6362 50 70.1206 51.5103 70.1206 53.3785V56.5728H53.0965C51.5493 56.5728 50.2969 57.8253 50.2969 59.3725V73.9705C50.2969 78.0858 50.9599 82.201 52.265 86.2058C53.5543 90.1631 55.4751 94.0153 57.9696 97.6621C62.2795 103.951 68.7313 108.419 76.1461 110.25L82.64 111.85C83.603 113.276 84.6134 114.67 85.6817 116.033L90.8652 122.659C92.1861 124.343 92.9018 126.422 92.9018 128.563V138.804C92.9018 142.193 90.1548 144.94 86.7658 144.94H80.2824C78.6089 144.94 77.246 146.298 77.246 147.977V161.312H75.9619C74.2885 161.312 72.9255 162.669 72.9255 164.348V170H123.371V164.348C123.371 162.675 122.014 161.312 120.335 161.312H119.051V147.977C119.051 146.303 117.693 144.94 116.015 144.94H109.531C106.142 144.94 103.395 142.193 103.395 138.804V128.563C103.395 126.422 104.111 124.343 105.432 122.659L110.615 116.033C111.684 114.67 112.694 113.276 113.657 111.85L120.151 110.25C127.566 108.419 134.023 103.951 138.327 97.6621C140.827 94.0153 142.743 90.1631 144.032 86.2058C145.337 82.201 146 78.0858 146 73.9705V59.3725C146.011 57.8253 144.758 56.5728 143.211 56.5728ZM77.488 104.819C71.4099 103.319 66.1158 99.6566 62.5847 94.4994C58.2064 88.1055 55.8961 81.0117 55.8961 73.9705V62.1668H70.1258V70.892C70.1258 82.8746 73.0623 94.6047 78.5984 105.093L77.488 104.819ZM140.411 73.9705C140.411 81.0064 138.096 88.1055 133.717 94.4994C130.186 99.6514 124.892 103.319 118.814 104.819L117.709 105.093C123.245 94.6099 126.182 82.8799 126.182 70.892V62.1668H140.411V73.9705Z" fill="white"/>
</g>
<defs>
<filter id="filter0_dd_272_300" x="54.5645" y="64" width="585.726" height="207" filterUnits="userSpaceOnUse" color-interpolation-filters="sRGB">
<feFlood flood-opacity="0" result="BackgroundImageFix"/>
<feColorMatrix in="SourceAlpha" type="matrix" values="0 0 0 0 0 0 0 0 0 0 0 0 0 0 0 0 0 0 127 0" result="hardAlpha"/>
<feOffset dy="4"/>
<feGaussianBlur stdDeviation="2"/>
<feComposite in2="hardAlpha" operator="out"/>
<feColorMatrix type="matrix" values="0 0 0 0 0 0 0 0 0 0 0 0 0 0 0 0 0 0 0.25 0"/>
<feBlend mode="normal" in2="BackgroundImageFix" result="effect1_dropShadow_272_300"/>
<feColorMatrix in="SourceAlpha" type="matrix" values="0 0 0 0 0 0 0 0 0 0 0 0 0 0 0 0 0 0 127 0" result="hardAlpha"/>
<feOffset dy="4"/>
<feGaussianBlur stdDeviation="2"/>
<feComposite in2="hardAlpha" operator="out"/>
<feColorMatrix type="matrix" values="0 0 0 0 0 0 0 0 0 0 0 0 0 0 0 0 0 0 0.25 0"/>
<feBlend mode="normal" in2="effect1_dropShadow_272_300" result="effect2_dropShadow_272_300"/>
<feBlend mode="normal" in="SourceGraphic" in2="effect2_dropShadow_272_300" result="shape"/>
</filter>
<filter id="filter1_f_272_300" x="0" y="0" width="195.703" height="220" filterUnits="userSpaceOnUse" color-interpolation-filters="sRGB">
<feFlood flood-opacity="0" result="BackgroundImageFix"/>
<feBlend mode="normal" in="SourceGraphic" in2="BackgroundImageFix" result="shape"/>
<feGaussianBlur stdDeviation="25" result="effect1_foregroundBlur_272_300"/>
</filter>
<filter id="filter2_d_272_300" x="46.2969" y="50" width="103.703" height="128" filterUnits="userSpaceOnUse" color-interpolation-filters="sRGB">
<feFlood flood-opacity="0" result="BackgroundImageFix"/>
<feColorMatrix in="SourceAlpha" type="matrix" values="0 0 0 0 0 0 0 0 0 0 0 0 0 0 0 0 0 0 127 0" result="hardAlpha"/>
<feOffset dy="4"/>
<feGaussianBlur stdDeviation="2"/>
<feComposite in2="hardAlpha" operator="out"/>
<feColorMatrix type="matrix" values="0 0 0 0 0 0 0 0 0 0 0 0 0 0 0 0 0 0 0.25 0"/>
<feBlend mode="normal" in2="BackgroundImageFix" result="effect1_dropShadow_272_300"/>
<feBlend mode="normal" in="SourceGraphic" in2="effect1_dropShadow_272_300" result="shape"/>
</filter>
</defs>
</svg>
