<svg width="679" height="271" viewBox="0 0 679 271" fill="none" xmlns="http://www.w3.org/2000/svg">
<g filter="url(#filter0_dd_272_163)">
<path d="M216.984 162V91.2H244.184L259.784 133.7L274.984 91.2H302.084V162H279.984V126.7L269.084 162H250.084L239.184 126.7V162H216.984ZM311.702 131.1V91.2H333.802V131.1C333.802 137.2 336.202 141.7 342.902 141.7C349.602 141.7 352.302 137.2 352.302 131.1V91.2H374.402V131.1C374.402 152 360.102 162.7 342.402 162.7C324.702 162.7 311.702 152 311.702 131.1ZM429.677 91.2H451.877V162H429.677L406.177 126.4V162H383.977V91.2H406.177L429.677 127.4V91.2ZM491.406 91.2C514.006 91.2 528.206 106 528.206 126.4C528.206 146.6 514.006 162 491.406 162H461.906V91.2H491.406ZM484.106 142.2H489.406C499.206 142.2 505.706 136.7 505.706 126.4C505.706 116.1 499.206 110.6 489.406 110.6H484.106V142.2ZM607.023 126.3C607.023 147.6 590.723 162.7 570.723 162.7C550.623 162.7 534.223 147.6 534.223 126.3C534.223 105 550.623 90 570.723 90C590.923 90 607.023 105 607.023 126.3ZM556.823 126.3C556.823 135.7 561.623 142 570.723 142C579.623 142 584.523 135.7 584.523 126.3C584.523 116.7 579.623 110.5 570.723 110.5C561.623 110.5 556.823 116.7 556.823 126.3ZM58.1406 226.6C69.4406 226.6 76.5406 234 76.5406 244.2C76.5406 254.3 69.4406 262 58.1406 262H43.3906V226.6H58.1406ZM54.4906 252.1H57.1406C62.0406 252.1 65.2906 249.35 65.2906 244.2C65.2906 239.05 62.0406 236.3 57.1406 236.3H54.4906V252.1ZM115.949 244.15C115.949 254.8 107.799 262.35 97.7988 262.35C87.7488 262.35 79.5488 254.8 79.5488 244.15C79.5488 233.5 87.7488 226 97.7988 226C107.899 226 115.949 233.5 115.949 244.15ZM90.8488 244.15C90.8488 248.85 93.2488 252 97.7988 252C102.249 252 104.699 248.85 104.699 244.15C104.699 239.35 102.249 236.25 97.7988 236.25C93.2488 236.25 90.8488 239.35 90.8488 244.15ZM168.945 191.2C191.545 191.2 205.745 206 205.745 226.4C205.745 246.6 191.545 262 168.945 262H139.445V191.2H168.945ZM161.645 242.2H166.945C176.745 242.2 183.245 236.7 183.245 226.4C183.245 216.1 176.745 210.6 166.945 210.6H161.645V242.2ZM260.962 191.2V208.9H235.962V217.6H257.962V234.3H235.962V244.3H260.962V262H213.762V191.2H260.962ZM324.028 240.1C324.028 253.1 314.128 262.7 297.028 262.7C280.828 262.7 268.128 255.2 267.128 239.3H290.728C291.128 244.5 293.928 245.4 296.128 245.4C298.328 245.4 300.428 244.4 300.428 241.9C300.328 232.3 266.928 235.8 267.328 211.6C267.328 197.4 279.328 190 294.428 190C311.528 190 322.528 198.2 323.128 212.9H299.228C299.028 208.6 296.728 207.3 294.328 207.3C292.528 207.3 291.128 208.5 291.128 210.9C291.128 219.8 324.028 218.3 324.028 240.1ZM354.028 222H360.328C365.328 222 367.228 219.4 367.228 215.5C367.228 211.6 365.328 209 360.328 209H354.028V222ZM389.728 215.5C389.728 228.6 380.628 239.5 362.828 239.5H354.028V262H331.828V191.2H362.828C380.628 191.2 389.728 201.2 389.728 215.5ZM467.57 226.3C467.57 247.6 451.27 262.7 431.27 262.7C411.17 262.7 394.77 247.6 394.77 226.3C394.77 205 411.17 190 431.27 190C451.47 190 467.57 205 467.57 226.3ZM417.37 226.3C417.37 235.7 422.17 242 431.27 242C440.17 242 445.07 235.7 445.07 226.3C445.07 216.7 440.17 210.5 431.27 210.5C422.17 210.5 417.37 216.7 417.37 226.3ZM512.978 215.8C512.978 212.2 510.778 209.8 506.578 209.8H497.778V221.8H506.578C510.778 221.8 512.978 220 512.978 215.8ZM475.578 191.2H508.578C526.378 191.2 535.478 201.4 535.478 214.4C535.478 223.7 530.278 231.6 520.178 234.9L535.578 262H511.178L497.878 236.6H497.778V262H475.578V191.2ZM538.57 208.8V191.2H598.17V208.8H579.37V262H557.17V208.8H538.57ZM674.991 226.3C674.991 247.6 658.691 262.7 638.691 262.7C618.591 262.7 602.191 247.6 602.191 226.3C602.191 205 618.591 190 638.691 190C658.891 190 674.991 205 674.991 226.3ZM624.791 226.3C624.791 235.7 629.591 242 638.691 242C647.591 242 652.491 235.7 652.491 226.3C652.491 216.7 647.591 210.5 638.691 210.5C629.591 210.5 624.791 216.7 624.791 226.3Z" fill="white"/>
</g>
<g filter="url(#filter1_f_272_163)">
<path d="M117.291 50C80.1465 50 50 80.1465 50 117.291C50 154.436 80.1465 184.583 117.291 184.583C154.436 184.583 184.583 154.436 184.583 117.291C184.583 80.1465 154.436 50 117.291 50ZM166.01 158.204L161.973 158.922L161.838 158.967L159.999 146.541L162.332 139.587L168.612 120.746L170.81 118.682L176.059 113.792L176.238 113.972L180.904 119.31C180.41 134.114 174.893 147.617 166.01 158.204ZM127.968 180.007L121.418 176.956L117.964 169.016L116.708 166.145L133.845 151.52L134.832 150.668L157.801 147.572L158.384 147.483L160.223 159.954L147.258 171.349L142.234 175.79C137.748 177.764 132.948 179.199 127.968 180.007ZM73.6865 163.632L79.8773 166.683L81.3129 168.747L82.6587 170.676C79.5184 168.612 76.4679 166.234 73.6865 163.632ZM80.3259 164.978L70.0079 159.909C64.5798 153.898 60.2731 146.81 57.4469 139.049L58.389 125.097L58.9273 124.559L64.5349 118.861L80.4605 133.71L80.5054 133.89L83.8251 144.208L88.1766 157.711L87.9074 157.98L80.3259 164.978ZM54.0823 124.693C53.8132 122.271 53.6337 119.803 53.6337 117.291C53.6337 102.263 58.8376 88.4906 67.5406 77.6343L67.7649 77.9034L69.4696 79.9222L71.3089 90.8234L63.9069 117.022L58.6133 122.405L56.9534 124.065L56.7291 124.29L56.5945 124.424L54.0823 124.693ZM85.3055 64.8938L112.446 58.5236L113.029 63.6826L113.972 71.9369L101.455 82.6587L95.7132 87.5934L72.879 89.9261L71.1743 79.8325L85.3055 64.8938ZM117.291 53.6786C122.316 53.6786 127.205 54.2618 131.916 55.3833L125.097 55.8319L112.895 56.6394L85.2158 63.1891L84.812 62.6508C94.2776 56.9086 105.403 53.6786 117.291 53.6786ZM163.991 74.0903C167.894 78.3072 171.214 83.0176 173.861 88.1317L173.995 90.6439L175.207 110.158V110.248L175.296 112.043L167.805 119.086L149.86 104.775L143.849 83.1073L143.4 81.4923L147.976 77.9483L154.077 73.2379L154.929 73.3276L163.991 74.0903ZM104.461 113.568L103.384 109.889L97.1487 88.6252L114.914 73.4174L115.003 73.3276L140.843 81.5372L141.651 81.8063L148.066 104.955L130.435 121.777L129.493 122.675L104.865 113.658L104.461 113.568ZM156.096 71.6229L154.66 71.4883L144.297 62.4713L138.107 57.1329C147.258 60.318 155.423 65.477 162.152 72.1613L156.096 71.6229ZM81.9858 132.589L103.34 115.003L116.573 119.848L128.641 124.245L133.486 149.546L132.589 150.309L131.647 151.116L115.99 164.44L115.587 164.799L115.317 165.023L112.222 164.081L89.9261 157.173L81.9858 132.589ZM120.656 178.571L124.783 180.5C122.316 180.769 119.803 180.949 117.291 180.949C115.362 180.949 113.433 180.859 111.504 180.68L120.656 178.571Z" fill="#60C8D8"/>
</g>
<g filter="url(#filter2_d_272_163)">
<path d="M117.291 50C80.1465 50 50 80.1465 50 117.291C50 154.436 80.1465 184.583 117.291 184.583C154.436 184.583 184.583 154.436 184.583 117.291C184.583 80.1465 154.436 50 117.291 50ZM166.01 158.204L161.973 158.922L161.838 158.967L159.999 146.541L162.332 139.587L168.612 120.746L170.81 118.682L176.059 113.792L176.238 113.972L180.904 119.31C180.41 134.114 174.893 147.617 166.01 158.204ZM127.968 180.007L121.418 176.956L117.964 169.016L116.708 166.145L133.845 151.52L134.832 150.668L157.801 147.572L158.384 147.483L160.223 159.954L147.258 171.349L142.234 175.79C137.748 177.764 132.948 179.199 127.968 180.007ZM73.6865 163.632L79.8773 166.683L81.3129 168.747L82.6587 170.676C79.5184 168.612 76.4679 166.234 73.6865 163.632ZM80.3259 164.978L70.0079 159.909C64.5798 153.898 60.2731 146.81 57.4469 139.049L58.389 125.097L58.9273 124.559L64.5349 118.861L80.4605 133.71L80.5054 133.89L83.8251 144.208L88.1766 157.711L87.9074 157.98L80.3259 164.978ZM54.0823 124.693C53.8132 122.271 53.6337 119.803 53.6337 117.291C53.6337 102.263 58.8376 88.4906 67.5406 77.6343L67.7649 77.9034L69.4696 79.9222L71.3089 90.8234L63.9069 117.022L58.6133 122.405L56.9534 124.065L56.7291 124.29L56.5945 124.424L54.0823 124.693ZM85.3055 64.8938L112.446 58.5236L113.029 63.6826L113.972 71.9369L101.455 82.6587L95.7132 87.5934L72.879 89.9261L71.1743 79.8325L85.3055 64.8938ZM117.291 53.6786C122.316 53.6786 127.205 54.2618 131.916 55.3833L125.097 55.8319L112.895 56.6394L85.2158 63.1891L84.812 62.6508C94.2776 56.9086 105.403 53.6786 117.291 53.6786ZM163.991 74.0903C167.894 78.3072 171.214 83.0176 173.861 88.1317L173.995 90.6439L175.207 110.158V110.248L175.296 112.043L167.805 119.086L149.86 104.775L143.849 83.1073L143.4 81.4923L147.976 77.9483L154.077 73.2379L154.929 73.3276L163.991 74.0903ZM104.461 113.568L103.384 109.889L97.1487 88.6252L114.914 73.4174L115.003 73.3276L140.843 81.5372L141.651 81.8063L148.066 104.955L130.435 121.777L129.493 122.675L104.865 113.658L104.461 113.568ZM156.096 71.6229L154.66 71.4883L144.297 62.4713L138.107 57.1329C147.258 60.318 155.423 65.477 162.152 72.1613L156.096 71.6229ZM81.9858 132.589L103.34 115.003L116.573 119.848L128.641 124.245L133.486 149.546L132.589 150.309L131.647 151.116L115.99 164.44L115.587 164.799L115.317 165.023L112.222 164.081L89.9261 157.173L81.9858 132.589ZM120.656 178.571L124.783 180.5C122.316 180.769 119.803 180.949 117.291 180.949C115.362 180.949 113.433 180.859 111.504 180.68L120.656 178.571Z" fill="white"/>
</g>
<defs>
<filter id="filter0_dd_272_163" x="39.3906" y="90" width="639.601" height="180.7" filterUnits="userSpaceOnUse" color-interpolation-filters="sRGB">
<feFlood flood-opacity="0" result="BackgroundImageFix"/>
<feColorMatrix in="SourceAlpha" type="matrix" values="0 0 0 0 0 0 0 0 0 0 0 0 0 0 0 0 0 0 127 0" result="hardAlpha"/>
<feOffset dy="4"/>
<feGaussianBlur stdDeviation="2"/>
<feComposite in2="hardAlpha" operator="out"/>
<feColorMatrix type="matrix" values="0 0 0 0 0 0 0 0 0 0 0 0 0 0 0 0 0 0 0.25 0"/>
<feBlend mode="normal" in2="BackgroundImageFix" result="effect1_dropShadow_272_163"/>
<feColorMatrix in="SourceAlpha" type="matrix" values="0 0 0 0 0 0 0 0 0 0 0 0 0 0 0 0 0 0 127 0" result="hardAlpha"/>
<feOffset dy="4"/>
<feGaussianBlur stdDeviation="2"/>
<feComposite in2="hardAlpha" operator="out"/>
<feColorMatrix type="matrix" values="0 0 0 0 0 0 0 0 0 0 0 0 0 0 0 0 0 0 0.25 0"/>
<feBlend mode="normal" in2="effect1_dropShadow_272_163" result="effect2_dropShadow_272_163"/>
<feBlend mode="normal" in="SourceGraphic" in2="effect2_dropShadow_272_163" result="shape"/>
</filter>
<filter id="filter1_f_272_163" x="0" y="0" width="234.583" height="234.583" filterUnits="userSpaceOnUse" color-interpolation-filters="sRGB">
<feFlood flood-opacity="0" result="BackgroundImageFix"/>
<feBlend mode="normal" in="SourceGraphic" in2="BackgroundImageFix" result="shape"/>
<feGaussianBlur stdDeviation="25" result="effect1_foregroundBlur_272_163"/>
</filter>
<filter id="filter2_d_272_163" x="46" y="50" width="142.583" height="142.583" filterUnits="userSpaceOnUse" color-interpolation-filters="sRGB">
<feFlood flood-opacity="0" result="BackgroundImageFix"/>
<feColorMatrix in="SourceAlpha" type="matrix" values="0 0 0 0 0 0 0 0 0 0 0 0 0 0 0 0 0 0 127 0" result="hardAlpha"/>
<feOffset dy="4"/>
<feGaussianBlur stdDeviation="2"/>
<feComposite in2="hardAlpha" operator="out"/>
<feColorMatrix type="matrix" values="0 0 0 0 0 0 0 0 0 0 0 0 0 0 0 0 0 0 0.25 0"/>
<feBlend mode="normal" in2="BackgroundImageFix" result="effect1_dropShadow_272_163"/>
<feBlend mode="normal" in="SourceGraphic" in2="effect1_dropShadow_272_163" result="shape"/>
</filter>
</defs>
</svg>
