<svg width="263" height="239" viewBox="0 0 263 239" fill="none" xmlns="http://www.w3.org/2000/svg">
<g filter="url(#filter0_f_6_7081)">
<path d="M154.47 53.3545C144.516 57.4039 138.982 64.9068 131.279 71.7323C124.84 65.8218 119.357 58.6693 111.379 54.6394C103.959 50.8899 95.3073 49.6166 87.0359 50.4071C54.472 53.5219 38.8235 94.2491 60.2765 118.596L131.538 189L202.004 119.137C231.026 85.8739 195.431 36.6899 154.466 53.3506L154.47 53.3545Z" fill="#60C8D8"/>
</g>
<path d="M154.47 53.3545C144.516 57.4039 138.982 64.9068 131.279 71.7323C124.84 65.8218 119.357 58.6693 111.379 54.6394C103.959 50.8899 95.3073 49.6166 87.0359 50.4071C54.472 53.5219 38.8235 94.2491 60.2765 118.596L131.538 189L202.004 119.137C231.026 85.8739 195.431 36.6899 154.466 53.3506L154.47 53.3545Z" fill="white"/>
<defs>
<filter id="filter0_f_6_7081" x="0.416504" y="0" width="262.167" height="239" filterUnits="userSpaceOnUse" color-interpolation-filters="sRGB">
<feFlood flood-opacity="0" result="BackgroundImageFix"/>
<feBlend mode="normal" in="SourceGraphic" in2="BackgroundImageFix" result="shape"/>
<feGaussianBlur stdDeviation="25" result="effect1_foregroundBlur_6_7081"/>
</filter>
</defs>
</svg>
