<svg width="735" height="273" viewBox="0 0 735 273" fill="none" xmlns="http://www.w3.org/2000/svg">
<g filter="url(#filter0_dd_272_102)">
<path d="M214.881 164V93.2H242.081L257.681 135.7L272.881 93.2H299.981V164H277.881V128.7L266.981 164H247.981L237.081 128.7V164H214.881ZM309.598 133.1V93.2H331.698V133.1C331.698 139.2 334.098 143.7 340.798 143.7C347.498 143.7 350.198 139.2 350.198 133.1V93.2H372.298V133.1C372.298 154 357.998 164.7 340.298 164.7C322.598 164.7 309.598 154 309.598 133.1ZM427.573 93.2H449.773V164H427.573L404.073 128.4V164H381.873V93.2H404.073L427.573 129.4V93.2ZM489.303 93.2C511.903 93.2 526.103 108 526.103 128.4C526.103 148.6 511.903 164 489.303 164H459.803V93.2H489.303ZM482.003 144.2H487.303C497.103 144.2 503.603 138.7 503.603 128.4C503.603 118.1 497.103 112.6 487.303 112.6H482.003V144.2ZM604.919 128.3C604.919 149.6 588.619 164.7 568.619 164.7C548.519 164.7 532.119 149.6 532.119 128.3C532.119 107 548.519 92 568.619 92C588.819 92 604.919 107 604.919 128.3ZM554.719 128.3C554.719 137.7 559.519 144 568.619 144C577.519 144 582.419 137.7 582.419 128.3C582.419 118.7 577.519 112.5 568.619 112.5C559.519 112.5 554.719 118.7 554.719 128.3ZM642.17 128.6C653.47 128.6 660.57 136 660.57 146.2C660.57 156.3 653.47 164 642.17 164H627.42V128.6H642.17ZM638.52 154.1H641.17C646.07 154.1 649.32 151.35 649.32 146.2C649.32 141.05 646.07 138.3 641.17 138.3H638.52V154.1ZM689.028 164L687.278 158.65H675.478L673.728 164H662.078L675.028 128.6H687.828L700.728 164H689.028ZM684.578 150.3L681.378 140.45L678.178 150.3H684.578ZM730.6 153.05C730.6 159.55 725.65 164.35 717.1 164.35C709 164.35 702.65 160.6 702.15 152.65H713.95C714.15 155.25 715.55 155.7 716.65 155.7C717.75 155.7 718.8 155.2 718.8 153.95C718.75 149.15 702.05 150.9 702.25 138.8C702.25 131.7 708.25 128 715.8 128C724.35 128 729.85 132.1 730.15 139.45H718.2C718.1 137.3 716.95 136.65 715.75 136.65C714.85 136.65 714.15 137.25 714.15 138.45C714.15 142.9 730.6 142.15 730.6 153.05ZM63.9508 217.8C63.9508 214.2 61.7508 211.8 57.5508 211.8H48.7508V223.8H57.5508C61.7508 223.8 63.9508 222 63.9508 217.8ZM26.5508 193.2H59.5508C77.3508 193.2 86.4508 203.4 86.4508 216.4C86.4508 225.7 81.2508 233.6 71.1508 236.9L86.5508 264H62.1508L48.8508 238.6H48.7508V264H26.5508V193.2ZM119.343 224.3C115.643 224.3 113.143 226.1 112.443 230H125.643C125.643 226.1 122.643 224.3 119.343 224.3ZM146.943 243.7C144.543 255.7 133.543 264.7 119.343 264.7C102.443 264.7 90.543 253.8 90.543 235.8C90.543 217.8 102.443 206.9 119.343 206.9C136.243 206.9 148.143 217.6 148.143 235.3C148.143 236.7 148.043 238.3 147.843 239.7H112.243C112.543 245.4 115.243 247 118.243 247C121.143 247 122.643 245.4 123.443 243.7H146.943ZM152.164 235.8C152.164 217.6 162.464 206.9 175.464 206.9C182.964 206.9 188.264 210.2 190.964 215.3V190H213.164V264H190.964V256.3C188.264 261.4 182.964 264.7 175.464 264.7C162.464 264.7 152.164 254 152.164 235.8ZM191.064 235.8C191.064 229.6 187.464 226.3 182.864 226.3C178.264 226.3 174.664 229.6 174.664 235.8C174.664 242 178.264 245.3 182.864 245.3C187.464 245.3 191.064 242 191.064 235.8ZM248.933 224.3C245.233 224.3 242.733 226.1 242.033 230H255.233C255.233 226.1 252.233 224.3 248.933 224.3ZM276.533 243.7C274.133 255.7 263.133 264.7 248.933 264.7C232.033 264.7 220.133 253.8 220.133 235.8C220.133 217.8 232.033 206.9 248.933 206.9C265.833 206.9 277.733 217.6 277.733 235.3C277.733 236.7 277.633 238.3 277.433 239.7H241.833C242.133 245.4 244.833 247 247.833 247C250.733 247 252.233 245.4 253.033 243.7H276.533ZM333.854 247.1C333.854 257.1 324.854 264.7 309.854 264.7C293.554 264.7 282.854 256 281.854 244.5H303.154C303.654 247.9 306.354 249.4 309.754 249.4C312.054 249.4 313.454 248.2 313.454 246.8C313.454 239.4 284.354 246.2 284.354 225.5C284.354 215.3 292.454 206.9 308.354 206.9C324.454 206.9 332.354 216 333.954 227.1H314.254C313.654 224.1 311.454 222.3 307.854 222.3C305.654 222.3 304.354 223.2 304.354 224.9C304.354 231.9 333.854 225.4 333.854 247.1ZM414.356 242.1C414.356 255.1 404.456 264.7 387.356 264.7C371.156 264.7 358.456 257.2 357.456 241.3H381.056C381.456 246.5 384.256 247.4 386.456 247.4C388.656 247.4 390.756 246.4 390.756 243.9C390.656 234.3 357.256 237.8 357.656 213.6C357.656 199.4 369.656 192 384.756 192C401.856 192 412.856 200.2 413.456 214.9H389.556C389.356 210.6 387.056 209.3 384.656 209.3C382.856 209.3 381.456 210.5 381.456 212.9C381.456 221.8 414.356 220.3 414.356 242.1ZM478.756 235.8C478.756 253.8 465.956 264.7 448.956 264.7C431.956 264.7 419.156 253.8 419.156 235.8C419.156 217.8 431.956 206.9 448.956 206.9C465.956 206.9 478.756 217.8 478.756 235.8ZM441.656 235.8C441.656 242.5 444.956 245.5 448.956 245.5C452.856 245.5 456.256 242.5 456.256 235.8C456.256 229.1 452.856 226.1 448.956 226.1C445.056 226.1 441.656 229.1 441.656 235.8ZM482.73 235.8C482.73 217.8 494.63 206.9 511.53 206.9C526.03 206.9 536.93 215.5 539.63 230.3H516.13C515.33 227.6 513.83 225.9 511.03 225.9C507.63 225.9 505.23 229 505.23 235.8C505.23 242.6 507.63 245.7 511.03 245.7C513.83 245.7 515.33 244 516.13 241.3H539.63C536.93 256.1 526.03 264.7 511.53 264.7C494.63 264.7 482.73 253.8 482.73 235.8ZM546.668 264V207.6H568.868V264H546.668ZM557.868 203.1C549.968 203.1 545.068 198.3 545.068 192.2C545.068 186 549.968 181.1 557.868 181.1C565.668 181.1 570.568 186 570.568 192.2C570.568 198.3 565.668 203.1 557.868 203.1ZM575.895 235.8C575.895 217.6 586.195 206.9 599.195 206.9C606.695 206.9 612.095 210.2 614.795 215.3V207.6H636.895V264H614.795V256.3C612.095 261.4 606.695 264.7 599.195 264.7C586.195 264.7 575.895 254 575.895 235.8ZM614.795 235.8C614.795 229.6 611.195 226.3 606.595 226.3C601.995 226.3 598.395 229.6 598.395 235.8C598.395 242 601.995 245.3 606.595 245.3C611.195 245.3 614.795 242 614.795 235.8ZM646.863 264V207.6H669.063V264H646.863ZM658.063 203.1C650.163 203.1 645.263 198.3 645.263 192.2C645.263 186 650.163 181.1 658.063 181.1C665.863 181.1 670.763 186 670.763 192.2C670.763 198.3 665.863 203.1 658.063 203.1ZM728.19 247.1C728.19 257.1 719.19 264.7 704.19 264.7C687.89 264.7 677.19 256 676.19 244.5H697.49C697.99 247.9 700.69 249.4 704.09 249.4C706.39 249.4 707.79 248.2 707.79 246.8C707.79 239.4 678.69 246.2 678.69 225.5C678.69 215.3 686.79 206.9 702.69 206.9C718.79 206.9 726.69 216 728.29 227.1H708.59C707.99 224.1 705.79 222.3 702.19 222.3C699.99 222.3 698.69 223.2 698.69 224.9C698.69 231.9 728.19 225.4 728.19 247.1Z" fill="white"/>
</g>
<g filter="url(#filter1_f_272_102)">
<path d="M138.333 52.8477C129.883 56.2853 125.185 62.6547 118.646 68.449C113.179 63.4315 108.525 57.3595 101.753 53.9385C95.4535 50.7554 88.1088 49.6746 81.087 50.3456C53.4428 52.9898 40.1584 87.564 58.3704 108.232L118.866 168L178.686 108.692C203.323 80.4541 173.106 38.7008 138.33 52.8444L138.333 52.8477Z" fill="#60C8D8"/>
</g>
<path d="M138.333 52.8477C129.883 56.2853 125.185 62.6547 118.646 68.449C113.179 63.4315 108.525 57.3595 101.753 53.9385C95.4535 50.7554 88.1088 49.6746 81.087 50.3456C53.4428 52.9898 40.1584 87.564 58.3704 108.232L118.866 168L178.686 108.692C203.323 80.4541 173.106 38.7008 138.33 52.8444L138.333 52.8477Z" fill="white"/>
<defs>
<filter id="filter0_dd_272_102" x="22.5508" y="92" width="712.049" height="180.7" filterUnits="userSpaceOnUse" color-interpolation-filters="sRGB">
<feFlood flood-opacity="0" result="BackgroundImageFix"/>
<feColorMatrix in="SourceAlpha" type="matrix" values="0 0 0 0 0 0 0 0 0 0 0 0 0 0 0 0 0 0 127 0" result="hardAlpha"/>
<feOffset dy="4"/>
<feGaussianBlur stdDeviation="2"/>
<feComposite in2="hardAlpha" operator="out"/>
<feColorMatrix type="matrix" values="0 0 0 0 0 0 0 0 0 0 0 0 0 0 0 0 0 0 0.25 0"/>
<feBlend mode="normal" in2="BackgroundImageFix" result="effect1_dropShadow_272_102"/>
<feColorMatrix in="SourceAlpha" type="matrix" values="0 0 0 0 0 0 0 0 0 0 0 0 0 0 0 0 0 0 127 0" result="hardAlpha"/>
<feOffset dy="4"/>
<feGaussianBlur stdDeviation="2"/>
<feComposite in2="hardAlpha" operator="out"/>
<feColorMatrix type="matrix" values="0 0 0 0 0 0 0 0 0 0 0 0 0 0 0 0 0 0 0.25 0"/>
<feBlend mode="normal" in2="effect1_dropShadow_272_102" result="effect2_dropShadow_272_102"/>
<feBlend mode="normal" in="SourceGraphic" in2="effect2_dropShadow_272_102" result="shape"/>
</filter>
<filter id="filter1_f_272_102" x="0" y="0" width="237.667" height="218" filterUnits="userSpaceOnUse" color-interpolation-filters="sRGB">
<feFlood flood-opacity="0" result="BackgroundImageFix"/>
<feBlend mode="normal" in="SourceGraphic" in2="BackgroundImageFix" result="shape"/>
<feGaussianBlur stdDeviation="25" result="effect1_foregroundBlur_272_102"/>
</filter>
</defs>
</svg>
