<svg width="789" height="238" viewBox="0 0 789 238" fill="none" xmlns="http://www.w3.org/2000/svg">
<g filter="url(#filter0_dd_272_219)">
<path d="M193.416 129V58.2H220.616L236.216 100.7L251.416 58.2H278.516V129H256.416V93.7L245.516 129H226.516L215.616 93.7V129H193.416ZM288.133 98.1V58.2H310.233V98.1C310.233 104.2 312.633 108.7 319.333 108.7C326.033 108.7 328.733 104.2 328.733 98.1V58.2H350.833V98.1C350.833 119 336.533 129.7 318.833 129.7C301.133 129.7 288.133 119 288.133 98.1ZM406.108 58.2H428.308V129H406.108L382.608 93.4V129H360.408V58.2H382.608L406.108 94.4V58.2ZM467.838 58.2C490.438 58.2 504.638 73 504.638 93.4C504.638 113.6 490.438 129 467.838 129H438.338V58.2H467.838ZM460.538 109.2H465.838C475.638 109.2 482.138 103.7 482.138 93.4C482.138 83.1 475.638 77.6 465.838 77.6H460.538V109.2ZM583.454 93.3C583.454 114.6 567.154 129.7 547.154 129.7C527.054 129.7 510.654 114.6 510.654 93.3C510.654 72 527.054 57 547.154 57C567.354 57 583.454 72 583.454 93.3ZM533.254 93.3C533.254 102.7 538.054 109 547.154 109C556.054 109 560.954 102.7 560.954 93.3C560.954 83.7 556.054 77.5 547.154 77.5C538.054 77.5 533.254 83.7 533.254 93.3ZM620.705 93.6C632.005 93.6 639.105 101 639.105 111.2C639.105 121.3 632.005 129 620.705 129H605.955V93.6H620.705ZM617.055 119.1H619.705C624.605 119.1 627.855 116.35 627.855 111.2C627.855 106.05 624.605 103.3 619.705 103.3H617.055V119.1ZM667.563 129L665.813 123.65H654.013L652.263 129H640.613L653.563 93.6H666.363L679.263 129H667.563ZM663.113 115.3L659.913 105.45L656.713 115.3H663.113ZM709.135 118.05C709.135 124.55 704.185 129.35 695.635 129.35C687.535 129.35 681.185 125.6 680.685 117.65H692.485C692.685 120.25 694.085 120.7 695.185 120.7C696.285 120.7 697.335 120.2 697.335 118.95C697.285 114.15 680.585 115.9 680.785 103.8C680.785 96.7 686.785 93 694.335 93C702.885 93 708.385 97.1 708.685 104.45H696.735C696.635 102.3 695.485 101.65 694.285 101.65C693.385 101.65 692.685 102.25 692.685 103.45C692.685 107.9 709.135 107.15 709.135 118.05ZM13.582 229V158.2H63.582V175.8H35.782V185.6H55.782V202.3H35.782V229H13.582ZM71.1016 229V158.2H93.3016V229H71.1016ZM103.328 158.2H125.528V212.2H146.928V229H103.328V158.2ZM153.914 229V158.2H181.114L196.714 200.7L211.914 158.2H239.014V229H216.914V193.7L206.014 229H187.014L176.114 193.7V229H153.914ZM296.231 158.2V175.9H271.231V184.6H293.231V201.3H271.231V211.3H296.231V229H249.031V158.2H296.231ZM359.298 207.1C359.298 220.1 349.398 229.7 332.298 229.7C316.098 229.7 303.398 222.2 302.398 206.3H325.998C326.398 211.5 329.198 212.4 331.398 212.4C333.598 212.4 335.698 211.4 335.698 208.9C335.598 199.3 302.198 202.8 302.598 178.6C302.598 164.4 314.598 157 329.698 157C346.798 157 357.798 165.2 358.398 179.9H334.498C334.298 175.6 331.998 174.3 329.598 174.3C327.798 174.3 326.398 175.5 326.398 177.9C326.398 186.8 359.298 185.3 359.298 207.1ZM431.29 158.2V175.9H406.29V184.6H428.29V201.3H406.29V211.3H431.29V229H384.09V158.2H431.29ZM511.348 207.1C511.348 220.1 501.448 229.7 484.348 229.7C468.148 229.7 455.448 222.2 454.448 206.3H478.048C478.448 211.5 481.248 212.4 483.448 212.4C485.648 212.4 487.748 211.4 487.748 208.9C487.648 199.3 454.248 202.8 454.648 178.6C454.648 164.4 466.648 157 481.748 157C498.848 157 509.848 165.2 510.448 179.9H486.548C486.348 175.6 484.048 174.3 481.648 174.3C479.848 174.3 478.448 175.5 478.448 177.9C478.448 186.8 511.348 185.3 511.348 207.1ZM566.348 158.2V175.9H541.348V184.6H563.348V201.3H541.348V211.3H566.348V229H519.148V158.2H566.348ZM529.248 139.3L555.148 128.3V144.7L529.248 154.1V139.3ZM612.115 182.8C612.115 179.2 609.915 176.8 605.715 176.8H596.915V188.8H605.715C609.915 188.8 612.115 187 612.115 182.8ZM574.715 158.2H607.715C625.515 158.2 634.615 168.4 634.615 181.4C634.615 190.7 629.415 198.6 619.315 201.9L634.715 229H610.315L597.015 203.6H596.915V229H574.715V158.2ZM641.707 229V158.2H663.907V229H641.707ZM721.134 158.2V175.9H696.134V184.6H718.134V201.3H696.134V211.3H721.134V229H673.934V158.2H721.134ZM784.2 207.1C784.2 220.1 774.3 229.7 757.2 229.7C741 229.7 728.3 222.2 727.3 206.3H750.9C751.3 211.5 754.1 212.4 756.3 212.4C758.5 212.4 760.6 211.4 760.6 208.9C760.5 199.3 727.1 202.8 727.5 178.6C727.5 164.4 739.5 157 754.6 157C771.7 157 782.7 165.2 783.3 179.9H759.4C759.2 175.6 756.9 174.3 754.5 174.3C752.7 174.3 751.3 175.5 751.3 177.9C751.3 186.8 784.2 185.3 784.2 207.1Z" fill="white"/>
</g>
<g filter="url(#filter1_f_272_219)">
<path fill-rule="evenodd" clip-rule="evenodd" d="M86.9374 40.9951H164.495C165.293 40.9951 166.091 41.7638 166.091 42.5993V120.401C166.091 120.802 165.293 122.005 164.495 122.005H86.9374C86.1392 122.005 85.341 120.768 85.341 120.401V42.5993C85.341 41.7638 86.1392 40.9951 86.9374 40.9951ZM137.456 81.4666L112.38 66.9289V96.1045L137.456 81.5V81.4666ZM112.38 63.2528L140.649 79.4948C141.048 79.8958 141.414 80.3303 141.88 80.3303C142.279 80.7313 142.279 81.5 141.88 81.9345C141.88 81.9345 141.88 82.3355 141.414 82.7031C141.148 83.015 140.893 83.2935 140.649 83.5386L112.38 99.7138C112.38 99.7138 111.947 99.7138 111.947 100.148H111.548C111.149 100.148 110.318 100.148 109.952 99.3128C109.52 99.3128 109.52 98.9117 109.12 98.5441V64.0883C109.12 64.0883 109.553 64.0883 109.553 63.6872C109.985 63.2193 110.351 62.8517 111.182 62.8517H111.947C111.947 62.8517 112.38 62.8517 112.38 63.2528ZM76.062 30H175.404C176.202 30 177 30.4679 177 31.6042V131.329C177 132.165 176.202 133 175.404 133H76.062C74.8314 133 74 132.165 74 131.329V31.6042C74 30.4345 74.8314 30 76.062 30ZM173.741 33.3086H77.6584V129.725H173.741V33.3086Z" fill="#60C8D8"/>
</g>
<path fill-rule="evenodd" clip-rule="evenodd" d="M86.9374 40.9951H164.495C165.293 40.9951 166.091 41.7638 166.091 42.5993V120.401C166.091 120.802 165.293 122.005 164.495 122.005H86.9374C86.1392 122.005 85.341 120.768 85.341 120.401V42.5993C85.341 41.7638 86.1392 40.9951 86.9374 40.9951ZM137.456 81.4666L112.38 66.9289V96.1045L137.456 81.5V81.4666ZM112.38 63.2528L140.649 79.4948C141.048 79.8959 141.414 80.3303 141.88 80.3303C142.279 80.7313 142.279 81.5 141.88 81.9345C141.88 81.9345 141.88 82.3355 141.414 82.7031C141.148 83.015 140.893 83.2935 140.649 83.5386L112.38 99.7138C112.38 99.7138 111.947 99.7138 111.947 100.148H111.548C111.149 100.148 110.318 100.148 109.952 99.3128C109.52 99.3128 109.52 98.9117 109.12 98.5441V64.0883C109.12 64.0883 109.553 64.0883 109.553 63.6872C109.985 63.2193 110.351 62.8517 111.182 62.8517H111.947C111.947 62.8517 112.38 62.8517 112.38 63.2528ZM76.062 30H175.404C176.202 30 177 30.4679 177 31.6042V131.329C177 132.164 176.202 133 175.404 133H76.062C74.8314 133 74 132.164 74 131.329V31.6042C74 30.4345 74.8314 30 76.062 30ZM173.741 33.3086H77.6584V129.725H173.741V33.3086Z" fill="white"/>
<defs>
<filter id="filter0_dd_272_219" x="9.58203" y="57" width="778.618" height="180.7" filterUnits="userSpaceOnUse" color-interpolation-filters="sRGB">
<feFlood flood-opacity="0" result="BackgroundImageFix"/>
<feColorMatrix in="SourceAlpha" type="matrix" values="0 0 0 0 0 0 0 0 0 0 0 0 0 0 0 0 0 0 127 0" result="hardAlpha"/>
<feOffset dy="4"/>
<feGaussianBlur stdDeviation="2"/>
<feComposite in2="hardAlpha" operator="out"/>
<feColorMatrix type="matrix" values="0 0 0 0 0 0 0 0 0 0 0 0 0 0 0 0 0 0 0.25 0"/>
<feBlend mode="normal" in2="BackgroundImageFix" result="effect1_dropShadow_272_219"/>
<feColorMatrix in="SourceAlpha" type="matrix" values="0 0 0 0 0 0 0 0 0 0 0 0 0 0 0 0 0 0 127 0" result="hardAlpha"/>
<feOffset dy="4"/>
<feGaussianBlur stdDeviation="2"/>
<feComposite in2="hardAlpha" operator="out"/>
<feColorMatrix type="matrix" values="0 0 0 0 0 0 0 0 0 0 0 0 0 0 0 0 0 0 0.25 0"/>
<feBlend mode="normal" in2="effect1_dropShadow_272_219" result="effect2_dropShadow_272_219"/>
<feBlend mode="normal" in="SourceGraphic" in2="effect2_dropShadow_272_219" result="shape"/>
</filter>
<filter id="filter1_f_272_219" x="44" y="0" width="163" height="163" filterUnits="userSpaceOnUse" color-interpolation-filters="sRGB">
<feFlood flood-opacity="0" result="BackgroundImageFix"/>
<feBlend mode="normal" in="SourceGraphic" in2="BackgroundImageFix" result="shape"/>
<feGaussianBlur stdDeviation="15" result="effect1_foregroundBlur_272_219"/>
</filter>
</defs>
</svg>
