<svg width="789" height="238" viewBox="0 0 789 238" fill="none" xmlns="http://www.w3.org/2000/svg">
<g filter="url(#filter0_dd_272_219)">
<path d="M277.784 58.2V129H255.684V93.7L244.784 129H225.784L214.884 93.7V129H192.684V58.2H219.884L235.484 100.7L250.684 58.2H277.784ZM309.501 58.2V98.1C309.501 101.367 310.201 103.967 311.601 105.9C313.067 107.767 315.401 108.7 318.601 108.7C321.801 108.7 324.167 107.767 325.701 105.9C327.234 103.967 328.001 101.367 328.001 98.1V58.2H350.101V98.1C350.101 104.833 348.701 110.6 345.901 115.4C343.101 120.133 339.267 123.7 334.401 126.1C329.534 128.5 324.101 129.7 318.101 129.7C312.101 129.7 306.767 128.5 302.101 126.1C297.501 123.7 293.901 120.133 291.301 115.4C288.701 110.667 287.401 104.9 287.401 98.1V58.2H309.501ZM427.576 129H405.376L381.876 93.4V129H359.676V58.2H381.876L405.376 94.4V58.2H427.576V129ZM467.105 58.2C474.505 58.2 480.972 59.7 486.505 62.7C492.105 65.7 496.405 69.8667 499.405 75.2C502.405 80.5333 503.905 86.6 503.905 93.4C503.905 100.133 502.405 106.2 499.405 111.6C496.405 117 492.105 121.267 486.505 124.4C480.972 127.467 474.505 129 467.105 129H437.605V58.2H467.105ZM465.105 109.2C470.105 109.2 474.072 107.833 477.005 105.1C479.939 102.367 481.405 98.4667 481.405 93.4C481.405 88.3333 479.939 84.4333 477.005 81.7C474.072 78.9667 470.105 77.6 465.105 77.6H459.805V109.2H465.105ZM546.422 129.7C539.755 129.7 533.622 128.133 528.022 125C522.489 121.867 518.089 117.533 514.822 112C511.555 106.467 509.922 100.233 509.922 93.3C509.922 86.3667 511.555 80.1333 514.822 74.6C518.089 69.0667 522.489 64.7667 528.022 61.7C533.622 58.5667 539.755 57 546.422 57C553.089 57 559.189 58.5667 564.722 61.7C570.255 64.7667 574.622 69.0667 577.822 74.6C581.089 80.1333 582.722 86.3667 582.722 93.3C582.722 100.233 581.089 106.467 577.822 112C574.622 117.533 570.222 121.867 564.622 125C559.089 128.133 553.022 129.7 546.422 129.7ZM546.422 109C550.822 109 554.222 107.6 556.622 104.8C559.022 101.933 560.222 98.1 560.222 93.3C560.222 88.4333 559.022 84.6 556.622 81.8C554.222 78.9333 550.822 77.5 546.422 77.5C541.955 77.5 538.522 78.9333 536.122 81.8C533.722 84.6 532.522 88.4333 532.522 93.3C532.522 98.1 533.722 101.933 536.122 104.8C538.522 107.6 541.955 109 546.422 109ZM619.973 93.6C623.673 93.6 626.906 94.35 629.673 95.85C632.473 97.35 634.623 99.4333 636.123 102.1C637.623 104.767 638.373 107.8 638.373 111.2C638.373 114.567 637.623 117.6 636.123 120.3C634.623 123 632.473 125.133 629.673 126.7C626.906 128.233 623.673 129 619.973 129H605.223V93.6H619.973ZM618.973 119.1C621.473 119.1 623.456 118.417 624.923 117.05C626.389 115.683 627.123 113.733 627.123 111.2C627.123 108.667 626.389 106.717 624.923 105.35C623.456 103.983 621.473 103.3 618.973 103.3H616.323V119.1H618.973ZM659.631 129.35C656.298 129.35 653.231 128.567 650.431 127C647.664 125.433 645.464 123.267 643.831 120.5C642.198 117.733 641.381 114.617 641.381 111.15C641.381 107.683 642.198 104.567 643.831 101.8C645.464 99.0333 647.664 96.8833 650.431 95.35C653.231 93.7833 656.298 93 659.631 93C662.964 93 666.014 93.7833 668.781 95.35C671.548 96.8833 673.731 99.0333 675.331 101.8C676.964 104.567 677.781 107.683 677.781 111.15C677.781 114.617 676.964 117.733 675.331 120.5C673.731 123.267 671.531 125.433 668.731 127C665.964 128.567 662.931 129.35 659.631 129.35ZM659.631 119C661.831 119 663.531 118.3 664.731 116.9C665.931 115.467 666.531 113.55 666.531 111.15C666.531 108.717 665.931 106.8 664.731 105.4C663.531 103.967 661.831 103.25 659.631 103.25C657.398 103.25 655.681 103.967 654.481 105.4C653.281 106.8 652.681 108.717 652.681 111.15C652.681 113.55 653.281 115.467 654.481 116.9C655.681 118.3 657.398 119 659.631 119ZM695.635 129.35C691.402 129.35 687.902 128.367 685.135 126.4C682.402 124.4 680.918 121.483 680.685 117.65H692.485C692.652 119.683 693.552 120.7 695.185 120.7C695.785 120.7 696.285 120.567 696.685 120.3C697.118 120 697.335 119.55 697.335 118.95C697.335 118.117 696.885 117.45 695.985 116.95C695.085 116.417 693.685 115.817 691.785 115.15C689.518 114.35 687.635 113.567 686.135 112.8C684.668 112.033 683.402 110.917 682.335 109.45C681.268 107.983 680.752 106.1 680.785 103.8C680.785 101.5 681.368 99.55 682.535 97.95C683.735 96.3167 685.352 95.0833 687.385 94.25C689.452 93.4167 691.768 93 694.335 93C698.668 93 702.102 94 704.635 96C707.202 98 708.552 100.817 708.685 104.45H696.735C696.702 103.45 696.452 102.733 695.985 102.3C695.518 101.867 694.952 101.65 694.285 101.65C693.818 101.65 693.435 101.817 693.135 102.15C692.835 102.45 692.685 102.883 692.685 103.45C692.685 104.25 693.118 104.917 693.985 105.45C694.885 105.95 696.302 106.567 698.235 107.3C700.468 108.133 702.302 108.933 703.735 109.7C705.202 110.467 706.468 111.533 707.535 112.9C708.602 114.267 709.135 115.983 709.135 118.05C709.135 120.217 708.602 122.167 707.535 123.9C706.468 125.6 704.918 126.933 702.885 127.9C700.852 128.867 698.435 129.35 695.635 129.35ZM63.582 158.2V175.8H35.782V185.6H55.782V202.3H35.782V229H13.582V158.2H63.582ZM93.3016 158.2V229H71.1016V158.2H93.3016ZM125.528 212.2H146.928V229H103.328V158.2H125.528V212.2ZM239.014 158.2V229H216.914V193.7L206.014 229H187.014L176.114 193.7V229H153.914V158.2H181.114L196.714 200.7L211.914 158.2H239.014ZM271.231 175.9V184.6H293.231V201.3H271.231V211.3H296.231V229H249.031V158.2H296.231V175.9H271.231ZM332.298 229.7C323.831 229.7 316.831 227.733 311.298 223.8C305.831 219.8 302.864 213.967 302.398 206.3H325.998C326.331 210.367 328.131 212.4 331.398 212.4C332.598 212.4 333.598 212.133 334.398 211.6C335.264 211 335.698 210.1 335.698 208.9C335.698 207.233 334.798 205.9 332.998 204.9C331.198 203.833 328.398 202.633 324.598 201.3C320.064 199.7 316.298 198.133 313.298 196.6C310.364 195.067 307.831 192.833 305.698 189.9C303.564 186.967 302.531 183.2 302.598 178.6C302.598 174 303.764 170.1 306.098 166.9C308.498 163.633 311.731 161.167 315.798 159.5C319.931 157.833 324.564 157 329.698 157C338.364 157 345.231 159 350.298 163C355.431 167 358.131 172.633 358.398 179.9H334.498C334.431 177.9 333.931 176.467 332.998 175.6C332.064 174.733 330.931 174.3 329.598 174.3C328.664 174.3 327.898 174.633 327.298 175.3C326.698 175.9 326.398 176.767 326.398 177.9C326.398 179.5 327.264 180.833 328.998 181.9C330.798 182.9 333.631 184.133 337.498 185.6C341.964 187.267 345.631 188.867 348.498 190.4C351.431 191.933 353.964 194.067 356.098 196.8C358.231 199.533 359.298 202.967 359.298 207.1C359.298 211.433 358.231 215.333 356.098 218.8C353.964 222.2 350.864 224.867 346.798 226.8C342.731 228.733 337.898 229.7 332.298 229.7ZM406.29 175.9V184.6H428.29V201.3H406.29V211.3H431.29V229H384.09V158.2H431.29V175.9H406.29ZM484.348 229.7C475.882 229.7 468.882 227.733 463.348 223.8C457.882 219.8 454.915 213.967 454.448 206.3H478.048C478.382 210.367 480.182 212.4 483.448 212.4C484.648 212.4 485.648 212.133 486.448 211.6C487.315 211 487.748 210.1 487.748 208.9C487.748 207.233 486.848 205.9 485.048 204.9C483.248 203.833 480.448 202.633 476.648 201.3C472.115 199.7 468.348 198.133 465.348 196.6C462.415 195.067 459.882 192.833 457.748 189.9C455.615 186.967 454.582 183.2 454.648 178.6C454.648 174 455.815 170.1 458.148 166.9C460.548 163.633 463.782 161.167 467.848 159.5C471.982 157.833 476.615 157 481.748 157C490.415 157 497.282 159 502.348 163C507.482 167 510.182 172.633 510.448 179.9H486.548C486.482 177.9 485.982 176.467 485.048 175.6C484.115 174.733 482.982 174.3 481.648 174.3C480.715 174.3 479.948 174.633 479.348 175.3C478.748 175.9 478.448 176.767 478.448 177.9C478.448 179.5 479.315 180.833 481.048 181.9C482.848 182.9 485.682 184.133 489.548 185.6C494.015 187.267 497.682 188.867 500.548 190.4C503.482 191.933 506.015 194.067 508.148 196.8C510.282 199.533 511.348 202.967 511.348 207.1C511.348 211.433 510.282 215.333 508.148 218.8C506.015 222.2 502.915 224.867 498.848 226.8C494.782 228.733 489.948 229.7 484.348 229.7ZM541.348 175.9V184.6H563.348V201.3H541.348V211.3H566.348V229H519.148V158.2H566.348V175.9H541.348ZM555.148 144.7L529.248 154.1V139.3L555.148 128.3V144.7ZM610.315 229L597.015 203.6H596.915V229H574.715V158.2H607.715C613.448 158.2 618.348 159.233 622.415 161.3C626.482 163.3 629.515 166.067 631.515 169.6C633.582 173.067 634.615 177 634.615 181.4C634.615 186.133 633.282 190.333 630.615 194C628.015 197.667 624.248 200.3 619.315 201.9L634.715 229H610.315ZM596.915 188.8H605.715C607.848 188.8 609.448 188.333 610.515 187.4C611.582 186.4 612.115 184.867 612.115 182.8C612.115 180.933 611.548 179.467 610.415 178.4C609.348 177.333 607.782 176.8 605.715 176.8H596.915V188.8ZM663.907 158.2V229H641.707V158.2H663.907ZM696.134 175.9V184.6H718.134V201.3H696.134V211.3H721.134V229H673.934V158.2H721.134V175.9H696.134ZM757.2 229.7C748.733 229.7 741.733 227.733 736.2 223.8C730.733 219.8 727.767 213.967 727.3 206.3H750.9C751.233 210.367 753.033 212.4 756.3 212.4C757.5 212.4 758.5 212.133 759.3 211.6C760.167 211 760.6 210.1 760.6 208.9C760.6 207.233 759.7 205.9 757.9 204.9C756.1 203.833 753.3 202.633 749.5 201.3C744.967 199.7 741.2 198.133 738.2 196.6C735.267 195.067 732.733 192.833 730.6 189.9C728.467 186.967 727.433 183.2 727.5 178.6C727.5 174 728.667 170.1 731 166.9C733.4 163.633 736.633 161.167 740.7 159.5C744.833 157.833 749.467 157 754.6 157C763.267 157 770.133 159 775.2 163C780.333 167 783.033 172.633 783.3 179.9H759.4C759.333 177.9 758.833 176.467 757.9 175.6C756.967 174.733 755.833 174.3 754.5 174.3C753.567 174.3 752.8 174.633 752.2 175.3C751.6 175.9 751.3 176.767 751.3 177.9C751.3 179.5 752.167 180.833 753.9 181.9C755.7 182.9 758.533 184.133 762.4 185.6C766.867 187.267 770.533 188.867 773.4 190.4C776.333 191.933 778.867 194.067 781 196.8C783.133 199.533 784.2 202.967 784.2 207.1C784.2 211.433 783.133 215.333 781 218.8C778.867 222.2 775.767 224.867 771.7 226.8C767.633 228.733 762.8 229.7 757.2 229.7Z" fill="white"/>
</g>
<g filter="url(#filter1_f_272_219)">
<path fill-rule="evenodd" clip-rule="evenodd" d="M86.9374 40.9951H164.495C165.293 40.9951 166.091 41.7638 166.091 42.5993V120.401C166.091 120.802 165.293 122.005 164.495 122.005H86.9374C86.1392 122.005 85.341 120.768 85.341 120.401V42.5993C85.341 41.7638 86.1392 40.9951 86.9374 40.9951ZM137.456 81.4666L112.38 66.9289V96.1045L137.456 81.5V81.4666ZM112.38 63.2528L140.649 79.4948C141.048 79.8958 141.414 80.3303 141.88 80.3303C142.279 80.7313 142.279 81.5 141.88 81.9345C141.88 81.9345 141.88 82.3355 141.414 82.7031C141.148 83.015 140.893 83.2935 140.649 83.5386L112.38 99.7138C112.38 99.7138 111.947 99.7138 111.947 100.148H111.548C111.149 100.148 110.318 100.148 109.952 99.3128C109.52 99.3128 109.52 98.9117 109.12 98.5441V64.0883C109.12 64.0883 109.553 64.0883 109.553 63.6872C109.985 63.2193 110.351 62.8517 111.182 62.8517H111.947C111.947 62.8517 112.38 62.8517 112.38 63.2528ZM76.062 30H175.404C176.202 30 177 30.4679 177 31.6042V131.329C177 132.165 176.202 133 175.404 133H76.062C74.8314 133 74 132.165 74 131.329V31.6042C74 30.4345 74.8314 30 76.062 30ZM173.741 33.3086H77.6584V129.725H173.741V33.3086Z" fill="#60C8D8"/>
</g>
<path fill-rule="evenodd" clip-rule="evenodd" d="M86.9374 40.9951H164.495C165.293 40.9951 166.091 41.7638 166.091 42.5993V120.401C166.091 120.802 165.293 122.005 164.495 122.005H86.9374C86.1392 122.005 85.341 120.768 85.341 120.401V42.5993C85.341 41.7638 86.1392 40.9951 86.9374 40.9951ZM137.456 81.4666L112.38 66.9289V96.1045L137.456 81.5V81.4666ZM112.38 63.2528L140.649 79.4948C141.048 79.8959 141.414 80.3303 141.88 80.3303C142.279 80.7313 142.279 81.5 141.88 81.9345C141.88 81.9345 141.88 82.3355 141.414 82.7031C141.148 83.015 140.893 83.2935 140.649 83.5386L112.38 99.7138C112.38 99.7138 111.947 99.7138 111.947 100.148H111.548C111.149 100.148 110.318 100.148 109.952 99.3128C109.52 99.3128 109.52 98.9117 109.12 98.5441V64.0883C109.12 64.0883 109.553 64.0883 109.553 63.6872C109.985 63.2193 110.351 62.8517 111.182 62.8517H111.947C111.947 62.8517 112.38 62.8517 112.38 63.2528ZM76.062 30H175.404C176.202 30 177 30.4679 177 31.6042V131.329C177 132.164 176.202 133 175.404 133H76.062C74.8314 133 74 132.164 74 131.329V31.6042C74 30.4345 74.8314 30 76.062 30ZM173.741 33.3086H77.6584V129.725H173.741V33.3086Z" fill="white"/>
<defs>
<filter id="filter0_dd_272_219" x="9.58203" y="57" width="778.618" height="180.7" filterUnits="userSpaceOnUse" color-interpolation-filters="sRGB">
<feFlood flood-opacity="0" result="BackgroundImageFix"/>
<feColorMatrix in="SourceAlpha" type="matrix" values="0 0 0 0 0 0 0 0 0 0 0 0 0 0 0 0 0 0 127 0" result="hardAlpha"/>
<feOffset dy="4"/>
<feGaussianBlur stdDeviation="2"/>
<feComposite in2="hardAlpha" operator="out"/>
<feColorMatrix type="matrix" values="0 0 0 0 0 0 0 0 0 0 0 0 0 0 0 0 0 0 0.25 0"/>
<feBlend mode="normal" in2="BackgroundImageFix" result="effect1_dropShadow_272_219"/>
<feColorMatrix in="SourceAlpha" type="matrix" values="0 0 0 0 0 0 0 0 0 0 0 0 0 0 0 0 0 0 127 0" result="hardAlpha"/>
<feOffset dy="4"/>
<feGaussianBlur stdDeviation="2"/>
<feComposite in2="hardAlpha" operator="out"/>
<feColorMatrix type="matrix" values="0 0 0 0 0 0 0 0 0 0 0 0 0 0 0 0 0 0 0.25 0"/>
<feBlend mode="normal" in2="effect1_dropShadow_272_219" result="effect2_dropShadow_272_219"/>
<feBlend mode="normal" in="SourceGraphic" in2="effect2_dropShadow_272_219" result="shape"/>
</filter>
<filter id="filter1_f_272_219" x="44" y="0" width="163" height="163" filterUnits="userSpaceOnUse" color-interpolation-filters="sRGB">
<feFlood flood-opacity="0" result="BackgroundImageFix"/>
<feBlend mode="normal" in="SourceGraphic" in2="BackgroundImageFix" result="shape"/>
<feGaussianBlur stdDeviation="15" result="effect1_foregroundBlur_272_219"/>
</filter>
</defs>
</svg>
